<svg xmlns="http://www.w3.org/2000/svg" xmlns:xlink="http://www.w3.org/1999/xlink" version="1.1" viewBox="0 0 2470 1328" style="background: #ffffff"><defs joint-selector="defs"></defs><g joint-selector="layers"  transform="matrix(1,0,0,1,0,0)"><g ></g><g ><!--z-index:1--><!--z-index:2--><!--z-index:3--><!--z-index:4--><!--z-index:5--><!--z-index:6--><!--z-index:7--><!--z-index:8--><!--z-index:9--><!--z-index:10--><!--z-index:11--><!--z-index:12--><!--z-index:13--><g   id="j_2"  transform="translate(20,1284)"><g id="v-5"><text  id="v-6" font-size="24px" xml:space="preserve" y="0.8em" font-weight="normal" text-anchor="start" fill="#444444" pointer-events="none" display="block" font-family="Open Sans, Tahoma, Arial"><tspan dy="0"  display="block">Thursday, 5 March 2026 at 11:01 Greenwich Mean Time</tspan></text></g></g><!--z-index:14--><g   id="j_1"  transform="translate(20,1238)"><g id="v-3"><text  id="v-4" font-size="36px" xml:space="preserve" y="0.8em" font-weight="normal" text-anchor="start" fill="#444444" pointer-events="none" display="block" font-family="Open Sans, Tahoma, Arial"><tspan dy="0"  display="block">System Context View: Breast Screening System</tspan></text></g></g><!--z-index:15--><g   id="j_3"  transform="translate(199,687)" style=""><g  id="v-10" style="opacity: 1;"><rect  x="0" y="160" width="400" height="240" rx="70" id="v-12" stroke-width="2" pointer-events="visiblePainted" fill="#08427b" stroke="#073b6f" stroke-dasharray=""></rect><circle  cx="200" cy="88.88888888888889" r="88.88888888888889" id="v-11" stroke-width="2" pointer-events="visiblePainted" fill="#08427b" stroke="#073b6f" stroke-dasharray=""></circle><line  x1="80" y1="266.6666666666667" x2="80" y2="400" id="v-18" stroke="#073b6f" stroke-width="1" stroke-dasharray=""></line><line  x1="320" y1="266.6666666666667" x2="320" y2="400" id="v-19" stroke="#073b6f" stroke-width="1" stroke-dasharray=""></line><text  id="v-13" font-size="33.599999999999994px" xml:space="preserve" y="231.3" font-weight="bold" text-anchor="middle" pointer-events="visible" font-family="Open Sans, Tahoma, Arial" fill="#ffffff" dominant-baseline="hanging" transform="matrix(1,0,0,1,200,0)"><tspan dy="0" >Staff User</tspan></text><text  id="v-14" font-size="16.799999999999997px" xml:space="preserve" y="272.9" text-anchor="middle" font-family="Open Sans, Tahoma, Arial" fill="#ffffff" dominant-baseline="hanging" transform="matrix(1,0,0,1,200,0)" style="display: block;"><tspan dy="0" >[Person]</tspan></text><text  id="v-15" font-size="24px" xml:space="preserve" y="304.7" text-anchor="middle" font-family="Open Sans, Tahoma, Arial" fill="#ffffff" dominant-baseline="hanging" transform="matrix(1,0,0,1,200,0)" style="display: block;"><tspan dy="0" >A user of the system</tspan></text><g  id="v-16" font-weight="normal" text-anchor="middle" color="#ffffff" transform="matrix(1,0,0,1,197.5,368)" display="none"><g ></g><g ></g><g ></g><g ></g></g><image  id="v-17"></image></g></g><!--z-index:16--><g   id="j_4"  transform="translate(999,687)" style=""><g  id="v-23" style="opacity: 1;"><rect  id="v-24" rx="20" ry="20" stroke-width="2" pointer-events="visiblePainted" fill="#aaaaaa" stroke="#999999" stroke-dasharray="" width="450" height="300"></rect><text  id="v-25" font-size="33.599999999999994px" xml:space="preserve" y="86.9" font-weight="bold" text-anchor="middle" pointer-events="visible" font-family="Open Sans, Tahoma, Arial" fill="#ffffff" dominant-baseline="hanging" transform="matrix(1,0,0,1,225,0)"><tspan dy="0" >CIS2</tspan></text><text  id="v-26" font-size="16.799999999999997px" xml:space="preserve" y="128.5" text-anchor="middle" font-family="Open Sans, Tahoma, Arial" fill="#ffffff" dominant-baseline="hanging" transform="matrix(1,0,0,1,225,0)" style="display: block;"><tspan dy="0" >[Software System]</tspan></text><text  id="v-27" font-size="24px" xml:space="preserve" y="160.3" text-anchor="middle" font-family="Open Sans, Tahoma, Arial" fill="#ffffff" dominant-baseline="hanging" transform="matrix(1,0,0,1,225,0)" style="display: block;"><tspan dy="0" >Central authentication system</tspan><tspan dy="1.2em" x="0" >used to authenticate users</tspan></text><g  id="v-28" color="#ffffff" transform="matrix(1,0,0,1,222.5,268)" display="none"><g ></g><g ></g><g ></g><g ></g></g><image  id="v-29"></image></g></g><!--z-index:17--><g   id="j_6"  transform="translate(1779,413)" style=""><g id="v-40"><rect  id="v-41" width="490" height="403" rx="0" ry="0" stroke-width="2" pointer-events="none" stroke="#444444" fill="#ffffff" stroke-dasharray="2,4"></rect><text  id="v-42" font-size="33.599999999999994px" xml:space="preserve" y="388" font-weight="bold" text-anchor="start" pointer-events="visible" font-family="Open Sans, Tahoma, Arial" fill="#444444" transform="matrix(1,0,0,1,15,0)"><tspan dy="0" >Azure</tspan></text><text  id="v-43" font-size="16.799999999999997px" xml:space="preserve" display="none" y="388" font-weight="normal" text-anchor="start" pointer-events="visible" font-family="Open Sans, Tahoma, Arial" fill="#444444" transform="matrix(1,0,0,1,15,0)"><tspan dy="0" style="fill-opacity: 0; stroke-opacity: 0;" >-</tspan></text><image  id="v-44" pointer-events="visible"></image></g></g><!--z-index:18--><g   id="j_5"  transform="translate(1799,433)" style=""><g  id="v-33" style="opacity: 1;"><rect  id="v-34" rx="20" ry="20" stroke-width="2" pointer-events="visiblePainted" fill="#1168bd" stroke="#0f5eaa" stroke-dasharray="" width="450" height="300"></rect><text  id="v-35" font-size="33.599999999999994px" xml:space="preserve" y="120.80000000000001" font-weight="bold" text-anchor="middle" pointer-events="visible" font-family="Open Sans, Tahoma, Arial" fill="#ffffff" dominant-baseline="hanging" transform="matrix(1,0,0,1,225,0)"><tspan dy="0" >Breast Screening System</tspan></text><text  id="v-36" font-size="16.799999999999997px" xml:space="preserve" y="162.4" text-anchor="middle" font-family="Open Sans, Tahoma, Arial" fill="#ffffff" dominant-baseline="hanging" transform="matrix(1,0,0,1,225,0)" style="display: block;"><tspan dy="0" >[Software System]</tspan></text><text  id="v-37" font-size="24px" xml:space="preserve" display="none" y="120.80000000000001" text-anchor="middle" font-family="Open Sans, Tahoma, Arial" fill="#ffffff" dominant-baseline="hanging" transform="matrix(1,0,0,1,225,0)" style="display: block;"><tspan dy="0"  style="fill-opacity: 0; stroke-opacity: 0;">-</tspan></text><g  id="v-38" color="#ffffff" transform="matrix(1,0,0,1,210,268)" display="none"><g  transform="translate(5 0)"><svg xmlns="http://www.w3.org/2000/svg" width="20" height="20" fill="currentColor" viewBox="0 0 16 16"><path fill-rule="evenodd" d="M6.5 12a5.5 5.5 0 1 0 0-11 5.5 5.5 0 0 0 0 11zM13 6.5a6.5 6.5 0 1 1-13 0 6.5 6.5 0 0 1 13 0z"></path><path d="M10.344 11.742c.03.04.062.078.098.115l3.85 3.85a1 1 0 0 0 1.415-1.414l-3.85-3.85a1.007 1.007 0 0 0-.115-.1 6.538 6.538 0 0 1-1.398 1.4z"></path><path fill-rule="evenodd" d="M6.5 3a.5.5 0 0 1 .5.5V6h2.5a.5.5 0 0 1 0 1H7v2.5a.5.5 0 0 1-1 0V7H3.5a.5.5 0 0 1 0-1H6V3.5a.5.5 0 0 1 .5-.5z"></path></svg></g><g ></g><g ></g><g ></g></g><image  id="v-39"></image></g></g><!--z-index:19--><g   id="j_8"  transform="translate(979,159)" style=""><g id="v-58"><rect  id="v-59" width="490" height="403" rx="0" ry="0" stroke-width="2" pointer-events="none" stroke="#444444" fill="#ffffff" stroke-dasharray="2,4"></rect><text  id="v-60" font-size="33.599999999999994px" xml:space="preserve" y="388" font-weight="bold" text-anchor="start" pointer-events="visible" font-family="Open Sans, Tahoma, Arial" fill="#444444" transform="matrix(1,0,0,1,15,0)"><tspan dy="0" >Hospital network</tspan></text><text  id="v-61" font-size="16.799999999999997px" xml:space="preserve" display="none" y="388" font-weight="normal" text-anchor="start" pointer-events="visible" font-family="Open Sans, Tahoma, Arial" fill="#444444" transform="matrix(1,0,0,1,15,0)"><tspan dy="0" style="fill-opacity: 0; stroke-opacity: 0;" >-</tspan></text><image  id="v-62" pointer-events="visible"></image></g></g><!--z-index:20--><g   id="j_7"  transform="translate(999,179)" style=""><g  id="v-51" style="opacity: 1;"><rect  id="v-52" rx="20" ry="20" stroke-width="2" pointer-events="visiblePainted" fill="#1168bd" stroke="#0f5eaa" stroke-dasharray="" width="450" height="300"></rect><text  id="v-53" font-size="33.599999999999994px" xml:space="preserve" y="81.14000000000001" font-weight="bold" text-anchor="middle" pointer-events="visible" font-family="Open Sans, Tahoma, Arial" fill="#ffffff" dominant-baseline="hanging" transform="matrix(1,0,0,1,225,0)"><tspan dy="0" >Hospital Screening</tspan><tspan dy="1.2em" x="0" >system</tspan></text><text  id="v-54" font-size="16.799999999999997px" xml:space="preserve" y="163.06" text-anchor="middle" font-family="Open Sans, Tahoma, Arial" fill="#ffffff" dominant-baseline="hanging" transform="matrix(1,0,0,1,225,0)" style="display: block;"><tspan dy="0" >[Software System]</tspan></text><text  id="v-55" font-size="24px" xml:space="preserve" y="194.86" text-anchor="middle" font-family="Open Sans, Tahoma, Arial" fill="#ffffff" dominant-baseline="hanging" transform="matrix(1,0,0,1,225,0)" style="display: block;"><tspan dy="0" >Deployed in each hospital or trust</tspan></text><g  id="v-56" color="#ffffff" transform="matrix(1,0,0,1,210,268)" display="none"><g  transform="translate(5 0)"><svg xmlns="http://www.w3.org/2000/svg" width="20" height="20" fill="currentColor" viewBox="0 0 16 16"><path fill-rule="evenodd" d="M6.5 12a5.5 5.5 0 1 0 0-11 5.5 5.5 0 0 0 0 11zM13 6.5a6.5 6.5 0 1 1-13 0 6.5 6.5 0 0 1 13 0z"></path><path d="M10.344 11.742c.03.04.062.078.098.115l3.85 3.85a1 1 0 0 0 1.415-1.414l-3.85-3.85a1.007 1.007 0 0 0-.115-.1 6.538 6.538 0 0 1-1.398 1.4z"></path><path fill-rule="evenodd" d="M6.5 3a.5.5 0 0 1 .5.5V6h2.5a.5.5 0 0 1 0 1H7v2.5a.5.5 0 0 1-1 0V7H3.5a.5.5 0 0 1 0-1H6V3.5a.5.5 0 0 1 .5-.5z"></path></svg></g><g ></g><g ></g><g ></g></g><image  id="v-57"></image></g></g><!--z-index:21--><g   id="j_9" ><path  stroke="#444444" d="M 1449 400 L 1799 512" id="v-75" stroke-width="2" stroke-dasharray="8 8" fill="none" style="opacity: 1;"></path><path  fill="black" stroke="black" d="M 0 0 0 0" transform="matrix(0.9531172886380787,0.3026011138432863,-0.3026011138432863,0.9531172886380787,1449,400.44000244140625)"></path><path  fill="#444444" stroke="#444444" d="M 20 0 L 0 10 L 20 20 z" id="v-77" transform="matrix(-0.9531172483442946,-0.3026012407585275,0.3026012407585275,-0.9531172483442946,1795.9740321461702,521.0911814730595)" style="opacity: 1;"></path><path  d="M 1449 400 L 1799 512" id="v-76" fill="none" style="cursor: auto; pointer-events: visiblepainted;"></path><g ><g id="v-69"  label-idx="0" cursor="move" transform="matrix(1,0,0,1,1624,456)" style="cursor: default; opacity: 1;"><rect joint-selector="rect" id="v-72" fill="#ffffff" rx="3" ry="3" pointer-events="none" width="171.00747680664062" height="148.76058197021484" transform="matrix(1,0,0,1,-85.5,-74.4)"></rect><text joint-selector="text" id="v-71" font-size="24px" xml:space="preserve" y="0.8em" fill="#444444" text-anchor="middle" pointer-events="none" font-family="Open Sans, Tahoma, Arial" font-weight="normal" transform="matrix(1,0,0,1,0,-67.5)"><tspan dy="0" >Uses outbound</tspan><tspan dy="1.2em" x="0" >connection to</tspan><tspan dy="1.2em" x="0" >communicate</tspan><tspan dy="1.2em" x="0" >back and forth</tspan><tspan dy="1.2em" x="0" >with</tspan></text></g><g id="v-70"  label-idx="1" cursor="move" transform="matrix(1,0,0,1,1614,525.5999755859375)" style="cursor: default; opacity: 1;"><rect joint-selector="rect" id="v-74" fill="#ffffff" rx="3" ry="3"  width="0" height="0" transform="matrix(1,0,0,1,0,0)" display="none"></rect><text joint-selector="text" id="v-73" fill="#000000" font-size="14" text-anchor="middle" pointer-events="none"></text></g></g><g  display="none" style="display: none;"></g><g  id="v-79" display="none"><g  id="v-67"><path  end="source" d="M 26 0 L 0 13 L 26 26 z"></path></g><g  id="v-68"><path  end="target" d="M 26 0 L 0 13 L 26 26 z"></path></g></g><g  id="v-78" display="none"><g  id="v-66" transform="translate(1487.096965887973, 412.19102908415135) "><g  event="remove"><circle r="11"></circle><path transform="scale(.8) translate(-16, -16)" d="M24.778,21.419 19.276,15.917 24.777,10.415 21.949,7.585 16.447,13.087 10.945,7.585 8.117,10.415 13.618,15.917 8.116,21.419 10.946,24.248 16.447,18.746 21.948,24.248z"></path><title>Remove link.</title></g><g  event="link:options"><circle r="11" transform="translate(25)"></circle><path fill="white" transform="scale(.55) translate(29, -16)" d="M31.229,17.736c0.064-0.571,0.104-1.148,0.104-1.736s-0.04-1.166-0.104-1.737l-4.377-1.557c-0.218-0.716-0.504-1.401-0.851-2.05l1.993-4.192c-0.725-0.91-1.549-1.734-2.458-2.459l-4.193,1.994c-0.647-0.347-1.334-0.632-2.049-0.849l-1.558-4.378C17.165,0.708,16.588,0.667,16,0.667s-1.166,0.041-1.737,0.105L12.707,5.15c-0.716,0.217-1.401,0.502-2.05,0.849L6.464,4.005C5.554,4.73,4.73,5.554,4.005,6.464l1.994,4.192c-0.347,0.648-0.632,1.334-0.849,2.05l-4.378,1.557C0.708,14.834,0.667,15.412,0.667,16s0.041,1.165,0.105,1.736l4.378,1.558c0.217,0.715,0.502,1.401,0.849,2.049l-1.994,4.193c0.725,0.909,1.549,1.733,2.459,2.458l4.192-1.993c0.648,0.347,1.334,0.633,2.05,0.851l1.557,4.377c0.571,0.064,1.148,0.104,1.737,0.104c0.588,0,1.165-0.04,1.736-0.104l1.558-4.377c0.715-0.218,1.399-0.504,2.049-0.851l4.193,1.993c0.909-0.725,1.733-1.549,2.458-2.458l-1.993-4.193c0.347-0.647,0.633-1.334,0.851-2.049L31.229,17.736zM16,20.871c-2.69,0-4.872-2.182-4.872-4.871c0-2.69,2.182-4.872,4.872-4.872c2.689,0,4.871,2.182,4.871,4.872C20.871,18.689,18.689,20.871,16,20.871z"></path><title>Link options.</title></g></g></g></g><!--z-index:22--><g   id="j_10" ><path  stroke="#444444" d="M 599 875 L 999 851" id="v-92" stroke-width="2" stroke-dasharray="8 8" fill="none" style="opacity: 1;"></path><path  fill="black" stroke="black" d="M 0 0 0 0" transform="matrix(0.9981688490013502,-0.06048924601381482,0.06048924601381482,0.9981688490013502,599,874.8800048828125)"></path><path  fill="#444444" stroke="#444444" d="M 20 0 L 0 10 L 20 20 z" id="v-94" transform="matrix(-0.9981688651105753,0.06048898018536885,-0.06048898018536885,-0.9981688651105753,999.6048889998344,860.621671896127)" style="opacity: 1;"></path><path  d="M 599 875 L 999 851" id="v-93" fill="none" style="cursor: auto; pointer-events: visiblepainted;"></path><g ><g id="v-86"  label-idx="0" cursor="move" transform="matrix(1,0,0,1,799,863)" style="cursor: default; opacity: 1;"><rect joint-selector="rect" id="v-89" fill="#ffffff" rx="3" ry="3" pointer-events="none" width="191.86630249023438" height="33.56058311462402" transform="matrix(1,0,0,1,-95.9,-16.8)"></rect><text joint-selector="text" id="v-88" font-size="24px" xml:space="preserve" y="0.8em" fill="#444444" text-anchor="middle" pointer-events="none" font-family="Open Sans, Tahoma, Arial" font-weight="normal" transform="matrix(1,0,0,1,0,-9.9)"><tspan dy="0" >Authenticates via</tspan></text></g><g id="v-87"  label-idx="1" cursor="move" transform="matrix(1,0,0,1,789,875)" style="cursor: default; opacity: 1;"><rect joint-selector="rect" id="v-91" fill="#ffffff" rx="3" ry="3"  width="0" height="0" transform="matrix(1,0,0,1,0,0)" display="none"></rect><text joint-selector="text" id="v-90" fill="#000000" font-size="14" text-anchor="middle" pointer-events="none"></text></g></g><g  display="none" style="display: none;"></g><g  id="v-96" display="none"><g  id="v-84"><path  end="source" d="M 26 0 L 0 13 L 26 26 z"></path></g><g  id="v-85"><path  end="target" d="M 26 0 L 0 13 L 26 26 z"></path></g></g><g  id="v-95" display="none"><g  id="v-83" transform="translate(638.9281938186311, 872.6043083708821) "><g  event="remove"><circle r="11"></circle><path transform="scale(.8) translate(-16, -16)" d="M24.778,21.419 19.276,15.917 24.777,10.415 21.949,7.585 16.447,13.087 10.945,7.585 8.117,10.415 13.618,15.917 8.116,21.419 10.946,24.248 16.447,18.746 21.948,24.248z"></path><title>Remove link.</title></g><g  event="link:options"><circle r="11" transform="translate(25)"></circle><path fill="white" transform="scale(.55) translate(29, -16)" d="M31.229,17.736c0.064-0.571,0.104-1.148,0.104-1.736s-0.04-1.166-0.104-1.737l-4.377-1.557c-0.218-0.716-0.504-1.401-0.851-2.05l1.993-4.192c-0.725-0.91-1.549-1.734-2.458-2.459l-4.193,1.994c-0.647-0.347-1.334-0.632-2.049-0.849l-1.558-4.378C17.165,0.708,16.588,0.667,16,0.667s-1.166,0.041-1.737,0.105L12.707,5.15c-0.716,0.217-1.401,0.502-2.05,0.849L6.464,4.005C5.554,4.73,4.73,5.554,4.005,6.464l1.994,4.192c-0.347,0.648-0.632,1.334-0.849,2.05l-4.378,1.557C0.708,14.834,0.667,15.412,0.667,16s0.041,1.165,0.105,1.736l4.378,1.558c0.217,0.715,0.502,1.401,0.849,2.049l-1.994,4.193c0.725,0.909,1.549,1.733,2.459,2.458l4.192-1.993c0.648,0.347,1.334,0.633,2.05,0.851l1.557,4.377c0.571,0.064,1.148,0.104,1.737,0.104c0.588,0,1.165-0.04,1.736-0.104l1.558-4.377c0.715-0.218,1.399-0.504,2.049-0.851l4.193,1.993c0.909-0.725,1.733-1.549,2.458-2.458l-1.993-4.193c0.347-0.647,0.633-1.334,0.851-2.049L31.229,17.736zM16,20.871c-2.69,0-4.872-2.182-4.872-4.871c0-2.69,2.182-4.872,4.872-4.872c2.689,0,4.871,2.182,4.871,4.872C20.871,18.689,18.689,20.871,16,20.871z"></path><title>Link options.</title></g></g></g></g><!--z-index:23--><g   id="j_11" ><path  stroke="#444444" d="M 1449 766 L 1799 654" id="v-109" stroke-width="2" stroke-dasharray="8 8" fill="none" style="opacity: 1;"></path><path  fill="black" stroke="black" d="M 0 0 0 0" transform="matrix(0.9531173289318458,-0.30260098692803994,0.30260098692803994,0.9531173289318458,1449,765.5599975585938)"></path><path  fill="#444444" stroke="#444444" d="M 20 0 L 0 10 L 20 20 z" id="v-111" transform="matrix(-0.9531172483442945,0.3026012407585277,-0.3026012407585277,-0.9531172483442945,1802.0260569613408,663.9711634938265)" style="opacity: 1;"></path><path  d="M 1449 766 L 1799 654" id="v-110" fill="none" style="cursor: auto; pointer-events: visiblepainted;"></path><g ><g id="v-103"  label-idx="0" cursor="move" transform="matrix(1,0,0,1,1624,710)" style="cursor: default; opacity: 1;"><rect joint-selector="rect" id="v-106" fill="#ffffff" rx="3" ry="3" pointer-events="none" width="162.73385620117188" height="91.16058349609375" transform="matrix(1,0,0,1,-81.4,-45.6)"></rect><text joint-selector="text" id="v-105" font-size="24px" xml:space="preserve" y="0.8em" fill="#444444" text-anchor="middle" pointer-events="none" font-family="Open Sans, Tahoma, Arial" font-weight="normal" transform="matrix(1,0,0,1,0,-38.7)"><tspan dy="0" >Provides</tspan><tspan dy="1.2em" x="0" >authentication</tspan><tspan dy="1.2em" x="0" >token to</tspan></text></g><g id="v-104"  label-idx="1" cursor="move" transform="matrix(1,0,0,1,1614,750.7999877929688)" style="cursor: default; opacity: 1;"><rect joint-selector="rect" id="v-108" fill="#ffffff" rx="3" ry="3"  width="0" height="0" transform="matrix(1,0,0,1,0,0)" display="none"></rect><text joint-selector="text" id="v-107" fill="#000000" font-size="14" text-anchor="middle" pointer-events="none"></text></g></g><g  display="none" style="display: none;"></g><g  id="v-113" display="none"><g  id="v-101"><path  end="source" d="M 26 0 L 0 13 L 26 26 z"></path></g><g  id="v-102"><path  end="target" d="M 26 0 L 0 13 L 26 26 z"></path></g></g><g  id="v-112" display="none"><g  id="v-100" transform="translate(1487.096965887973, 753.8089709158487) "><g  event="remove"><circle r="11"></circle><path transform="scale(.8) translate(-16, -16)" d="M24.778,21.419 19.276,15.917 24.777,10.415 21.949,7.585 16.447,13.087 10.945,7.585 8.117,10.415 13.618,15.917 8.116,21.419 10.946,24.248 16.447,18.746 21.948,24.248z"></path><title>Remove link.</title></g><g  event="link:options"><circle r="11" transform="translate(25)"></circle><path fill="white" transform="scale(.55) translate(29, -16)" d="M31.229,17.736c0.064-0.571,0.104-1.148,0.104-1.736s-0.04-1.166-0.104-1.737l-4.377-1.557c-0.218-0.716-0.504-1.401-0.851-2.05l1.993-4.192c-0.725-0.91-1.549-1.734-2.458-2.459l-4.193,1.994c-0.647-0.347-1.334-0.632-2.049-0.849l-1.558-4.378C17.165,0.708,16.588,0.667,16,0.667s-1.166,0.041-1.737,0.105L12.707,5.15c-0.716,0.217-1.401,0.502-2.05,0.849L6.464,4.005C5.554,4.73,4.73,5.554,4.005,6.464l1.994,4.192c-0.347,0.648-0.632,1.334-0.849,2.05l-4.378,1.557C0.708,14.834,0.667,15.412,0.667,16s0.041,1.165,0.105,1.736l4.378,1.558c0.217,0.715,0.502,1.401,0.849,2.049l-1.994,4.193c0.725,0.909,1.549,1.733,2.459,2.458l4.192-1.993c0.648,0.347,1.334,0.633,2.05,0.851l1.557,4.377c0.571,0.064,1.148,0.104,1.737,0.104c0.588,0,1.165-0.04,1.736-0.104l1.558-4.377c0.715-0.218,1.399-0.504,2.049-0.851l4.193,1.993c0.909-0.725,1.733-1.549,2.458-2.458l-1.993-4.193c0.347-0.647,0.633-1.334,0.851-2.049L31.229,17.736zM16,20.871c-2.69,0-4.872-2.182-4.872-4.871c0-2.69,2.182-4.872,4.872-4.872c2.689,0,4.871,2.182,4.871,4.872C20.871,18.689,18.689,20.871,16,20.871z"></path><title>Link options.</title></g></g></g></g><!--z-index:24--></g><g ></g><g ></g><g ></g></g></svg>