<svg xmlns="http://www.w3.org/2000/svg" xmlns:xlink="http://www.w3.org/1999/xlink" version="1.1" viewBox="0 0 1652 2340" style="background: #ffffff"><defs joint-selector="defs"></defs><g joint-selector="layers"  transform="matrix(1,0,0,1,0,0)"><g ></g><g ><!--z-index:1--><!--z-index:2--><!--z-index:3--><!--z-index:4--><!--z-index:5--><!--z-index:6--><!--z-index:7--><!--z-index:8--><!--z-index:9--><!--z-index:10--><!--z-index:11--><!--z-index:12--><!--z-index:13--><!--z-index:14--><!--z-index:15--><g   id="j_39"  transform="translate(20,2296)"><g id="v-426"><text  id="v-427" font-size="24px" xml:space="preserve" y="0.8em" font-weight="normal" text-anchor="start" fill="#444444" pointer-events="none" display="block" font-family="Open Sans, Tahoma, Arial"><tspan dy="0" >Thursday, 5 March 2026 at 10:52 Greenwich Mean Time</tspan></text></g></g><!--z-index:16--><g   id="j_38"  transform="translate(20,2250)"><g id="v-424"><text  id="v-425" font-size="36px" xml:space="preserve" y="0.8em" font-weight="normal" text-anchor="start" fill="#444444" pointer-events="none" display="block" font-family="Open Sans, Tahoma, Arial"><tspan dy="0" >Component View: Hospital Screening system - Screening gateway</tspan></text></g></g><!--z-index:17--><g   id="j_40"  transform="translate(1002,702)" style=""><g  id="v-431" style="opacity: 1;"><rect  id="v-432" rx="20" ry="20" stroke-width="2" pointer-events="visiblePainted" fill="#0000ff" stroke="#0000e6" stroke-dasharray="" width="450" height="300"></rect><text  id="v-433" font-size="33.599999999999994px" xml:space="preserve" y="101.30000000000001" font-weight="bold" text-anchor="middle" pointer-events="visible" font-family="Open Sans, Tahoma, Arial" fill="#ffffff" dominant-baseline="hanging" transform="matrix(1,0,0,1,225,0)"><tspan dy="0" >Azure ARC</tspan></text><text  id="v-434" font-size="16.799999999999997px" xml:space="preserve" y="142.9" text-anchor="middle" font-family="Open Sans, Tahoma, Arial" fill="#ffffff" dominant-baseline="hanging" transform="matrix(1,0,0,1,225,0)" style="display: block;"><tspan dy="0" >[Software System]</tspan></text><text  id="v-435" font-size="24px" xml:space="preserve" y="174.7" text-anchor="middle" font-family="Open Sans, Tahoma, Arial" fill="#ffffff" dominant-baseline="hanging" transform="matrix(1,0,0,1,225,0)" style="display: block;"><tspan dy="0" >Manages external VMs at scale</tspan></text><g  id="v-436" color="#ffffff" transform="matrix(1,0,0,1,222.5,268)" display="none"><g ></g><g ></g><g ></g><g ></g></g><image  id="v-437"></image></g></g><!--z-index:18--><g   id="j_41"  transform="translate(240,160)" style=""><g  id="v-441" style="opacity: 1;"><rect  id="v-442" rx="20" ry="20" stroke-width="2" pointer-events="visiblePainted" fill="#0000ff" stroke="#0000e6" stroke-dasharray="" width="450" height="300"></rect><text  id="v-443" font-size="33.599999999999994px" xml:space="preserve" y="101.30000000000001" font-weight="bold" text-anchor="middle" pointer-events="visible" font-family="Open Sans, Tahoma, Arial" fill="#ffffff" dominant-baseline="hanging" transform="matrix(1,0,0,1,225,0)"><tspan dy="0" >Azure relay</tspan></text><text  id="v-444" font-size="16.799999999999997px" xml:space="preserve" y="142.9" text-anchor="middle" font-family="Open Sans, Tahoma, Arial" fill="#ffffff" dominant-baseline="hanging" transform="matrix(1,0,0,1,225,0)" style="display: block;"><tspan dy="0" >[Software System]</tspan></text><text  id="v-445" font-size="24px" xml:space="preserve" y="174.7" text-anchor="middle" font-family="Open Sans, Tahoma, Arial" fill="#ffffff" dominant-baseline="hanging" transform="matrix(1,0,0,1,225,0)" style="display: block;"><tspan dy="0" >Securely exposes services</tspan></text><g  id="v-446" color="#ffffff" transform="matrix(1,0,0,1,222.5,268)" display="none"><g ></g><g ></g><g ></g><g ></g></g><image  id="v-447"></image></g></g><!--z-index:19--><g   id="j_44"  transform="translate(200,662)" style=""><g id="v-460"><rect  id="v-461" width="530" height="1438" rx="20" ry="20" stroke-width="2" pointer-events="none" stroke="#0f5eaa" fill="#ffffff" stroke-dasharray=""></rect><text  id="v-462" font-size="33.599999999999994px" xml:space="preserve" y="1399" font-weight="bold" text-anchor="start" pointer-events="visible" font-family="Open Sans, Tahoma, Arial" fill="#0f5eaa" transform="matrix(1,0,0,1,15,0)"><tspan dy="0" >Hospital Screening system</tspan></text><text  id="v-463" font-size="16.799999999999997px" xml:space="preserve" y="1423" font-weight="normal" text-anchor="start" pointer-events="visible" font-family="Open Sans, Tahoma, Arial" fill="#0f5eaa" transform="matrix(1,0,0,1,15,0)"><tspan dy="0" >[Software System]</tspan></text><image  id="v-464" pointer-events="visible"></image></g></g><!--z-index:20--><g   id="j_43"  transform="translate(220,682)" style=""><g id="v-455"><rect  id="v-456" width="490" height="1319" rx="0" ry="0" stroke-width="2" pointer-events="none" stroke="#3c7fc0" fill="#ffffff" stroke-dasharray=""></rect><text  id="v-457" font-size="33.599999999999994px" xml:space="preserve" y="1280" font-weight="bold" text-anchor="start" pointer-events="visible" font-family="Open Sans, Tahoma, Arial" fill="#3c7fc0" transform="matrix(1,0,0,1,15,0)"><tspan dy="0" >Screening gateway</tspan></text><text  id="v-458" font-size="16.799999999999997px" xml:space="preserve" y="1304" font-weight="normal" text-anchor="start" pointer-events="visible" font-family="Open Sans, Tahoma, Arial" fill="#3c7fc0" transform="matrix(1,0,0,1,15,0)"><tspan dy="0" >[Container]</tspan></text><image  id="v-459" pointer-events="visible"></image></g></g><!--z-index:21--><g   id="j_42"  transform="translate(240,1602)" style=""><g  id="v-448" style="opacity: 1;"><rect  id="v-449" rx="20" ry="20" stroke-width="2" pointer-events="visiblePainted" fill="#85bbf0" stroke="#78a8d8" stroke-dasharray="" width="450" height="300"></rect><text  id="v-450" font-size="33.599999999999994px" xml:space="preserve" y="101.30000000000001" font-weight="bold" text-anchor="middle" pointer-events="visible" font-family="Open Sans, Tahoma, Arial" fill="#000000" dominant-baseline="hanging" transform="matrix(1,0,0,1,225,0)"><tspan dy="0" >Virtual machine</tspan></text><text  id="v-451" font-size="16.799999999999997px" xml:space="preserve" y="142.9" text-anchor="middle" font-family="Open Sans, Tahoma, Arial" fill="#000000" dominant-baseline="hanging" transform="matrix(1,0,0,1,225,0)" style="display: block;"><tspan dy="0" >[Component]</tspan></text><text  id="v-452" font-size="24px" xml:space="preserve" y="174.7" text-anchor="middle" font-family="Open Sans, Tahoma, Arial" fill="#000000" dominant-baseline="hanging" transform="matrix(1,0,0,1,225,0)" style="display: block;"><tspan dy="0" >Managed by hospital</tspan></text><g  id="v-453" color="#000000" transform="matrix(1,0,0,1,222.5,268)" display="none"><g ></g><g ></g><g ></g><g ></g></g><image  id="v-454"></image></g></g><!--z-index:22--><g   id="j_45"  transform="translate(240,1152)" style=""><g  id="v-468" style="opacity: 1;"><rect  id="v-469" rx="20" ry="20" stroke-width="2" pointer-events="visiblePainted" fill="#85bbf0" stroke="#78a8d8" stroke-dasharray="" width="450" height="300"></rect><text  id="v-470" font-size="33.599999999999994px" xml:space="preserve" y="86.9" font-weight="bold" text-anchor="middle" pointer-events="visible" font-family="Open Sans, Tahoma, Arial" fill="#000000" dominant-baseline="hanging" transform="matrix(1,0,0,1,225,0)"><tspan dy="0" >Azure ARC agent</tspan></text><text  id="v-471" font-size="16.799999999999997px" xml:space="preserve" y="128.5" text-anchor="middle" font-family="Open Sans, Tahoma, Arial" fill="#000000" dominant-baseline="hanging" transform="matrix(1,0,0,1,225,0)" style="display: block;"><tspan dy="0" >[Component]</tspan></text><text  id="v-472" font-size="24px" xml:space="preserve" y="160.3" text-anchor="middle" font-family="Open Sans, Tahoma, Arial" fill="#000000" dominant-baseline="hanging" transform="matrix(1,0,0,1,225,0)" style="display: block;"><tspan dy="0" >Outbound connection to receive</tspan><tspan dy="1.2em" x="0" >deployment instructions</tspan></text><g  id="v-473" color="#000000" transform="matrix(1,0,0,1,222.5,268)" display="none"><g ></g><g ></g><g ></g><g ></g></g><image  id="v-474"></image></g></g><!--z-index:23--><g   id="j_46"  transform="translate(240,702)" style=""><g  id="v-481" style="opacity: 1;"><rect  id="v-482" rx="20" ry="20" stroke-width="2" pointer-events="visiblePainted" fill="#85bbf0" stroke="#78a8d8" stroke-dasharray="" width="450" height="300"></rect><text  id="v-483" font-size="33.599999999999994px" xml:space="preserve" y="72.5" font-weight="bold" text-anchor="middle" pointer-events="visible" font-family="Open Sans, Tahoma, Arial" fill="#000000" dominant-baseline="hanging" transform="matrix(1,0,0,1,225,0)"><tspan dy="0" >Gateway application</tspan></text><text  id="v-484" font-size="16.799999999999997px" xml:space="preserve" y="114.1" text-anchor="middle" font-family="Open Sans, Tahoma, Arial" fill="#000000" dominant-baseline="hanging" transform="matrix(1,0,0,1,225,0)" style="display: block;"><tspan dy="0" >[Component]</tspan></text><text  id="v-485" font-size="24px" xml:space="preserve" y="145.89999999999998" text-anchor="middle" font-family="Open Sans, Tahoma, Arial" fill="#000000" dominant-baseline="hanging" transform="matrix(1,0,0,1,225,0)" style="display: block;"><tspan dy="0" >Connects to both the API in Azure</tspan><tspan dy="1.2em" x="0" >and devices in the hospital</tspan><tspan dy="1.2em" x="0" >network</tspan></text><g  id="v-486" color="#000000" transform="matrix(1,0,0,1,222.5,268)" display="none"><g ></g><g ></g><g ></g><g ></g></g><image  id="v-487"></image></g></g><!--z-index:24--><g   id="j_47" ><path  stroke="#444444" d="M 465 1602 L 465 1452" id="v-497" stroke-width="2" stroke-dasharray="8 8" fill="none" style="opacity: 1;"></path><path  fill="black" stroke="black" d="M 0 0 0 0" transform="matrix(-1.8369701987210297e-16,-1,1,-1.8369701987210297e-16,465,1602)"></path><path  fill="#444444" stroke="#444444" d="M 20 0 L 0 10 L 20 20 z" id="v-499" transform="matrix(6.123233995736766e-17,1,-1,6.123233995736766e-17,474.99999999999994,1452.0000000000005)" style="opacity: 1;"></path><path  d="M 465 1602 L 465 1452" id="v-498" fill="none" style="cursor: auto; pointer-events: visiblepainted;"></path><g ><g id="v-491"  label-idx="0" cursor="move" transform="matrix(1,0,0,1,465,1527)" style="cursor: default; opacity: 1;"><rect joint-selector="rect" id="v-494" fill="#ffffff" rx="3" ry="3" pointer-events="none" width="55.71452331542969" height="31.86532211303711" transform="matrix(1,0,0,1,-27.9,-15.9)"></rect><text joint-selector="text" id="v-493" font-size="24px" xml:space="preserve" y="0.8em" fill="#444444" text-anchor="middle" pointer-events="none" font-family="Open Sans, Tahoma, Arial" font-weight="normal" transform="matrix(1,0,0,1,0,-9.6)"><tspan dy="0" >Runs</tspan></text></g><g id="v-492"  label-idx="1" cursor="move" transform="matrix(1,0,0,1,455,1539)" style="cursor: default; opacity: 1;"><rect joint-selector="rect" id="v-496" fill="#ffffff" rx="3" ry="3"  width="0" height="0" transform="matrix(1,0,0,1,0,0)" display="none"></rect><text joint-selector="text" id="v-495" fill="#000000" font-size="14" text-anchor="middle" pointer-events="none"></text></g></g><g  display="none" style="display: none;"></g><g  id="v-501" display="none"><g  id="v-489"><path  end="source" d="M 26 0 L 0 13 L 26 26 z"></path></g><g  id="v-490"><path  end="target" d="M 26 0 L 0 13 L 26 26 z"></path></g></g><g  id="v-500" display="none"><g  id="v-488" transform="translate(465, 1562.0000000000002) "><g  event="remove"><circle r="11"></circle><path transform="scale(.8) translate(-16, -16)" d="M24.778,21.419 19.276,15.917 24.777,10.415 21.949,7.585 16.447,13.087 10.945,7.585 8.117,10.415 13.618,15.917 8.116,21.419 10.946,24.248 16.447,18.746 21.948,24.248z"></path><title>Remove link.</title></g><g  event="link:options"><circle r="11" transform="translate(25)"></circle><path fill="white" transform="scale(.55) translate(29, -16)" d="M31.229,17.736c0.064-0.571,0.104-1.148,0.104-1.736s-0.04-1.166-0.104-1.737l-4.377-1.557c-0.218-0.716-0.504-1.401-0.851-2.05l1.993-4.192c-0.725-0.91-1.549-1.734-2.458-2.459l-4.193,1.994c-0.647-0.347-1.334-0.632-2.049-0.849l-1.558-4.378C17.165,0.708,16.588,0.667,16,0.667s-1.166,0.041-1.737,0.105L12.707,5.15c-0.716,0.217-1.401,0.502-2.05,0.849L6.464,4.005C5.554,4.73,4.73,5.554,4.005,6.464l1.994,4.192c-0.347,0.648-0.632,1.334-0.849,2.05l-4.378,1.557C0.708,14.834,0.667,15.412,0.667,16s0.041,1.165,0.105,1.736l4.378,1.558c0.217,0.715,0.502,1.401,0.849,2.049l-1.994,4.193c0.725,0.909,1.549,1.733,2.459,2.458l4.192-1.993c0.648,0.347,1.334,0.633,2.05,0.851l1.557,4.377c0.571,0.064,1.148,0.104,1.737,0.104c0.588,0,1.165-0.04,1.736-0.104l1.558-4.377c0.715-0.218,1.399-0.504,2.049-0.851l4.193,1.993c0.909-0.725,1.733-1.549,2.458-2.458l-1.993-4.193c0.347-0.647,0.633-1.334,0.851-2.049L31.229,17.736zM16,20.871c-2.69,0-4.872-2.182-4.872-4.871c0-2.69,2.182-4.872,4.872-4.872c2.689,0,4.871,2.182,4.871,4.872C20.871,18.689,18.689,20.871,16,20.871z"></path><title>Link options.</title></g></g></g></g><!--z-index:25--><g   id="j_48" ><path  stroke="#444444" d="M 465 1152 L 465 1002" id="v-511" stroke-width="2" stroke-dasharray="8 8" fill="none" style="opacity: 1;"></path><path  fill="black" stroke="black" d="M 0 0 0 0" transform="matrix(-1.8369701987210297e-16,-1,1,-1.8369701987210297e-16,465,1152)"></path><path  fill="#444444" stroke="#444444" d="M 20 0 L 0 10 L 20 20 z" id="v-513" transform="matrix(6.123233995736766e-17,1,-1,6.123233995736766e-17,474.99999999999994,1002.0000000000005)" style="opacity: 1;"></path><path  d="M 465 1152 L 465 1002" id="v-512" fill="none" style="cursor: auto; pointer-events: visiblepainted;"></path><g ><g id="v-505"  label-idx="0" cursor="move" transform="matrix(1,0,0,1,465,1077)" style="cursor: default; opacity: 1;"><rect joint-selector="rect" id="v-508" fill="#ffffff" rx="3" ry="3" pointer-events="none" width="89.52163696289062" height="31.86532211303711" transform="matrix(1,0,0,1,-44.8,-15.9)"></rect><text joint-selector="text" id="v-507" font-size="24px" xml:space="preserve" y="0.8em" fill="#444444" text-anchor="middle" pointer-events="none" font-family="Open Sans, Tahoma, Arial" font-weight="normal" transform="matrix(1,0,0,1,0,-9.6)"><tspan dy="0" >Deploys</tspan></text></g><g id="v-506"  label-idx="1" cursor="move" transform="matrix(1,0,0,1,455,1089)" style="cursor: default; opacity: 1;"><rect joint-selector="rect" id="v-510" fill="#ffffff" rx="3" ry="3"  width="0" height="0" transform="matrix(1,0,0,1,0,0)" display="none"></rect><text joint-selector="text" id="v-509" fill="#000000" font-size="14" text-anchor="middle" pointer-events="none"></text></g></g><g  display="none" style="display: none;"></g><g  id="v-515" display="none"><g  id="v-503"><path  end="source" d="M 26 0 L 0 13 L 26 26 z"></path></g><g  id="v-504"><path  end="target" d="M 26 0 L 0 13 L 26 26 z"></path></g></g><g  id="v-514" display="none"><g  id="v-502" transform="translate(465, 1112) "><g  event="remove"><circle r="11"></circle><path transform="scale(.8) translate(-16, -16)" d="M24.778,21.419 19.276,15.917 24.777,10.415 21.949,7.585 16.447,13.087 10.945,7.585 8.117,10.415 13.618,15.917 8.116,21.419 10.946,24.248 16.447,18.746 21.948,24.248z"></path><title>Remove link.</title></g><g  event="link:options"><circle r="11" transform="translate(25)"></circle><path fill="white" transform="scale(.55) translate(29, -16)" d="M31.229,17.736c0.064-0.571,0.104-1.148,0.104-1.736s-0.04-1.166-0.104-1.737l-4.377-1.557c-0.218-0.716-0.504-1.401-0.851-2.05l1.993-4.192c-0.725-0.91-1.549-1.734-2.458-2.459l-4.193,1.994c-0.647-0.347-1.334-0.632-2.049-0.849l-1.558-4.378C17.165,0.708,16.588,0.667,16,0.667s-1.166,0.041-1.737,0.105L12.707,5.15c-0.716,0.217-1.401,0.502-2.05,0.849L6.464,4.005C5.554,4.73,4.73,5.554,4.005,6.464l1.994,4.192c-0.347,0.648-0.632,1.334-0.849,2.05l-4.378,1.557C0.708,14.834,0.667,15.412,0.667,16s0.041,1.165,0.105,1.736l4.378,1.558c0.217,0.715,0.502,1.401,0.849,2.049l-1.994,4.193c0.725,0.909,1.549,1.733,2.459,2.458l4.192-1.993c0.648,0.347,1.334,0.633,2.05,0.851l1.557,4.377c0.571,0.064,1.148,0.104,1.737,0.104c0.588,0,1.165-0.04,1.736-0.104l1.558-4.377c0.715-0.218,1.399-0.504,2.049-0.851l4.193,1.993c0.909-0.725,1.733-1.549,2.458-2.458l-1.993-4.193c0.347-0.647,0.633-1.334,0.851-2.049L31.229,17.736zM16,20.871c-2.69,0-4.872-2.182-4.872-4.871c0-2.69,2.182-4.872,4.872-4.872c2.689,0,4.871,2.182,4.871,4.872C20.871,18.689,18.689,20.871,16,20.871z"></path><title>Link options.</title></g></g></g></g><!--z-index:26--><g   id="j_49" ><path  stroke="#444444" d="M 690 1169 L 1002 985" id="v-528" stroke-width="2" stroke-dasharray="8 8" fill="none" style="opacity: 1;"></path><path  fill="black" stroke="black" d="M 0 0 0 0" transform="matrix(0.8610517170174449,-0.5085173946103614,0.5085173946103614,0.8610517170174449,690,1169.1300048828125)"></path><path  fill="#444444" stroke="#444444" d="M 20 0 L 0 10 L 20 20 z" id="v-530" transform="matrix(-0.8610517170174448,0.5085173946103616,-0.5085173946103616,-0.8610517170174448,1007.0851564483089,993.4805434193835)" style="opacity: 1;"></path><path  d="M 690 1169 L 1002 985" id="v-529" fill="none" style="cursor: auto; pointer-events: visiblepainted;"></path><g ><g id="v-522"  label-idx="0" cursor="move" transform="matrix(1,0,0,1,846,1077)" style="cursor: default; opacity: 1;"><rect joint-selector="rect" id="v-525" fill="#ffffff" rx="3" ry="3" pointer-events="none" width="192.73541259765625" height="60.665327072143555" transform="matrix(1,0,0,1,-96.4,-30.3)"></rect><text joint-selector="text" id="v-524" font-size="24px" xml:space="preserve" y="0.8em" fill="#444444" text-anchor="middle" pointer-events="none" font-family="Open Sans, Tahoma, Arial" font-weight="normal" transform="matrix(1,0,0,1,0,-24)"><tspan dy="0" >Receives</tspan><tspan dy="1.2em" x="0" >instructions from</tspan></text></g><g id="v-523"  label-idx="1" cursor="move" transform="matrix(1,0,0,1,836,1103.4000244140625)" style="cursor: default; opacity: 1;"><rect joint-selector="rect" id="v-527" fill="#ffffff" rx="3" ry="3"  width="0" height="0" transform="matrix(1,0,0,1,0,0)" display="none"></rect><text joint-selector="text" id="v-526" fill="#000000" font-size="14" text-anchor="middle" pointer-events="none"></text></g></g><g  display="none" style="display: none;"></g><g  id="v-532" display="none"><g  id="v-520"><path  end="source" d="M 26 0 L 0 13 L 26 26 z"></path></g><g  id="v-521"><path  end="target" d="M 26 0 L 0 13 L 26 26 z"></path></g></g><g  id="v-531" display="none"><g  id="v-519" transform="translate(724.4546361353522, 1148.6805992022282) "><g  event="remove"><circle r="11"></circle><path transform="scale(.8) translate(-16, -16)" d="M24.778,21.419 19.276,15.917 24.777,10.415 21.949,7.585 16.447,13.087 10.945,7.585 8.117,10.415 13.618,15.917 8.116,21.419 10.946,24.248 16.447,18.746 21.948,24.248z"></path><title>Remove link.</title></g><g  event="link:options"><circle r="11" transform="translate(25)"></circle><path fill="white" transform="scale(.55) translate(29, -16)" d="M31.229,17.736c0.064-0.571,0.104-1.148,0.104-1.736s-0.04-1.166-0.104-1.737l-4.377-1.557c-0.218-0.716-0.504-1.401-0.851-2.05l1.993-4.192c-0.725-0.91-1.549-1.734-2.458-2.459l-4.193,1.994c-0.647-0.347-1.334-0.632-2.049-0.849l-1.558-4.378C17.165,0.708,16.588,0.667,16,0.667s-1.166,0.041-1.737,0.105L12.707,5.15c-0.716,0.217-1.401,0.502-2.05,0.849L6.464,4.005C5.554,4.73,4.73,5.554,4.005,6.464l1.994,4.192c-0.347,0.648-0.632,1.334-0.849,2.05l-4.378,1.557C0.708,14.834,0.667,15.412,0.667,16s0.041,1.165,0.105,1.736l4.378,1.558c0.217,0.715,0.502,1.401,0.849,2.049l-1.994,4.193c0.725,0.909,1.549,1.733,2.459,2.458l4.192-1.993c0.648,0.347,1.334,0.633,2.05,0.851l1.557,4.377c0.571,0.064,1.148,0.104,1.737,0.104c0.588,0,1.165-0.04,1.736-0.104l1.558-4.377c0.715-0.218,1.399-0.504,2.049-0.851l4.193,1.993c0.909-0.725,1.733-1.549,2.458-2.458l-1.993-4.193c0.347-0.647,0.633-1.334,0.851-2.049L31.229,17.736zM16,20.871c-2.69,0-4.872-2.182-4.872-4.871c0-2.69,2.182-4.872,4.872-4.872c2.689,0,4.871,2.182,4.871,4.872C20.871,18.689,18.689,20.871,16,20.871z"></path><title>Link options.</title></g></g></g></g><!--z-index:27--><g   id="j_50" ><path  stroke="#444444" d="M 465 702 L 465 460" id="v-545" stroke-width="2" stroke-dasharray="8 8" fill="none" style="opacity: 1;"></path><path  fill="black" stroke="black" d="M 0 0 0 0" transform="matrix(-1.8369701987210297e-16,-1,1,-1.8369701987210297e-16,465,702)"></path><path  fill="#444444" stroke="#444444" d="M 20 0 L 0 10 L 20 20 z" id="v-547" transform="matrix(6.123233995736766e-17,1,-1,6.123233995736766e-17,474.99999999999994,460.00000000000045)" style="opacity: 1;"></path><path  d="M 465 702 L 465 460" id="v-546" fill="none" style="cursor: auto; pointer-events: visiblepainted;"></path><g ><g id="v-539"  label-idx="0" cursor="move" transform="matrix(1,0,0,1,465,581)" style="cursor: default; opacity: 1;"><rect joint-selector="rect" id="v-542" fill="#ffffff" rx="3" ry="3" pointer-events="none" width="195.87216186523438" height="89.4653205871582" transform="matrix(1,0,0,1,-97.9,-44.7)"></rect><text joint-selector="text" id="v-541" font-size="24px" xml:space="preserve" y="0.8em" fill="#444444" text-anchor="middle" pointer-events="none" font-family="Open Sans, Tahoma, Arial" font-weight="normal" transform="matrix(1,0,0,1,0,-38.4)"><tspan dy="0" >Creates</tspan><tspan dy="1.2em" x="0" >bidirectional</tspan><tspan dy="1.2em" x="0" >connection to API</tspan></text></g><g id="v-540"  label-idx="1" cursor="move" transform="matrix(1,0,0,1,455,621.7999877929688)" style="cursor: default; opacity: 1;"><rect joint-selector="rect" id="v-544" fill="#ffffff" rx="3" ry="3"  width="0" height="0" transform="matrix(1,0,0,1,0,0)" display="none"></rect><text joint-selector="text" id="v-543" fill="#000000" font-size="14" text-anchor="middle" pointer-events="none"></text></g></g><g  display="none" style="display: none;"></g><g  id="v-549" display="none"><g  id="v-537"><path  end="source" d="M 26 0 L 0 13 L 26 26 z"></path></g><g  id="v-538"><path  end="target" d="M 26 0 L 0 13 L 26 26 z"></path></g></g><g  id="v-548" display="none"><g  id="v-536" transform="translate(465, 662) "><g  event="remove"><circle r="11"></circle><path transform="scale(.8) translate(-16, -16)" d="M24.778,21.419 19.276,15.917 24.777,10.415 21.949,7.585 16.447,13.087 10.945,7.585 8.117,10.415 13.618,15.917 8.116,21.419 10.946,24.248 16.447,18.746 21.948,24.248z"></path><title>Remove link.</title></g><g  event="link:options"><circle r="11" transform="translate(25)"></circle><path fill="white" transform="scale(.55) translate(29, -16)" d="M31.229,17.736c0.064-0.571,0.104-1.148,0.104-1.736s-0.04-1.166-0.104-1.737l-4.377-1.557c-0.218-0.716-0.504-1.401-0.851-2.05l1.993-4.192c-0.725-0.91-1.549-1.734-2.458-2.459l-4.193,1.994c-0.647-0.347-1.334-0.632-2.049-0.849l-1.558-4.378C17.165,0.708,16.588,0.667,16,0.667s-1.166,0.041-1.737,0.105L12.707,5.15c-0.716,0.217-1.401,0.502-2.05,0.849L6.464,4.005C5.554,4.73,4.73,5.554,4.005,6.464l1.994,4.192c-0.347,0.648-0.632,1.334-0.849,2.05l-4.378,1.557C0.708,14.834,0.667,15.412,0.667,16s0.041,1.165,0.105,1.736l4.378,1.558c0.217,0.715,0.502,1.401,0.849,2.049l-1.994,4.193c0.725,0.909,1.549,1.733,2.459,2.458l4.192-1.993c0.648,0.347,1.334,0.633,2.05,0.851l1.557,4.377c0.571,0.064,1.148,0.104,1.737,0.104c0.588,0,1.165-0.04,1.736-0.104l1.558-4.377c0.715-0.218,1.399-0.504,2.049-0.851l4.193,1.993c0.909-0.725,1.733-1.549,2.458-2.458l-1.993-4.193c0.347-0.647,0.633-1.334,0.851-2.049L31.229,17.736zM16,20.871c-2.69,0-4.872-2.182-4.872-4.871c0-2.69,2.182-4.872,4.872-4.872c2.689,0,4.871,2.182,4.871,4.872C20.871,18.689,18.689,20.871,16,20.871z"></path><title>Link options.</title></g></g></g></g><!--z-index:28--><!--z-index:29--><!--z-index:30--><!--z-index:31--><!--z-index:32--><!--z-index:33--><!--z-index:34--></g><g ></g><g ></g><g ></g></g></svg>