<svg xmlns="http://www.w3.org/2000/svg" xmlns:xlink="http://www.w3.org/1999/xlink" version="1.1" viewBox="0 0 3028 1991" style="background: #ffffff"><defs><style>@import url(https://fonts.googleapis.com/css?family=Open+Sans:400,700);</style></defs><defs joint-selector="defs"></defs><g joint-selector="layers"  transform="matrix(1,0,0,1,0,0)"><g ></g><g ><!--z-index:1--><!--z-index:2--><!--z-index:3--><!--z-index:4--><!--z-index:5--><!--z-index:6--><!--z-index:7--><!--z-index:8--><!--z-index:9--><!--z-index:10--><!--z-index:11--><!--z-index:12--><!--z-index:13--><!--z-index:14--><!--z-index:15--><!--z-index:16--><!--z-index:17--><!--z-index:18--><g   id="j_18"  transform="translate(20,1954.6)"><g id="v-194"><text  id="v-195" font-size="22px" xml:space="preserve" y="0.8em" font-weight="normal" text-anchor="start" fill="#aaaaaa" pointer-events="none" display="block" font-family="Open Sans"><tspan dy="0" >Monday 20 October 2025 at 11:11 British Summer Time</tspan></text></g></g><!--z-index:19--><g   id="j_17"  transform="translate(20,1911.3999999999999)"><g id="v-192"><text  id="v-193" font-size="36px" xml:space="preserve" y="0.8em" font-weight="normal" text-anchor="start" fill="#000000" pointer-events="none" display="block" font-family="Open Sans"><tspan dy="0" >[Container] Breast Screening System</tspan></text></g></g><!--z-index:20--><g   id="j_19"  transform="translate(219,165)" style=""><g  id="v-199" style="opacity: 1;"><rect  id="v-200" rx="20" ry="20" stroke="#999999" stroke-width="2" pointer-events="visiblePainted" fill="#aaaaaa" width="450" height="300" style="fill: rgb(170, 170, 170); stroke: rgb(153, 153, 153);"></rect><text  id="v-201" font-size="34" xml:space="preserve" y="0.8em" font-weight="bold" text-anchor="middle" pointer-events="visible" font-family="Open Sans" fill="#ffffff" transform="matrix(1,0,0,1,225,88.1)" style="fill: rgb(255, 255, 255);"><tspan dy="0" >CIS2</tspan></text><text  id="v-202" font-size="17" xml:space="preserve" y="0.8em" text-anchor="middle" font-family="Open Sans" fill="#ffffff" transform="matrix(1,0,0,1,225,128.9)" style="fill: rgb(255, 255, 255);"><tspan dy="0" >[Software System]</tspan></text><text  id="v-203" font-size="24" xml:space="preserve" y="0.8em" text-anchor="middle" font-family="Open Sans" fill="#ffffff" transform="matrix(1,0,0,1,225,159.3)" style="fill: rgb(255, 255, 255);"><tspan dy="0" >Central authentication system used</tspan><tspan dy="1.2em" x="0" >to authenticate users</tspan></text><g  id="v-204" color="#ffffff" transform="matrix(1,0,0,1,222.5,268)" display="none" style="fill: rgb(255, 255, 255);"><g ></g><g ></g><g ></g><g ></g></g><image  id="v-205"></image></g></g><!--z-index:21--><g   id="j_20"  transform="translate(2377,1365)" style=""><g  id="v-212" style="opacity: 1;"><rect  id="v-213" rx="20" ry="20" stroke="#999999" stroke-width="2" pointer-events="visiblePainted" fill="#aaaaaa" width="450" height="300" style="fill: rgb(170, 170, 170); stroke: rgb(153, 153, 153);"></rect><text  id="v-214" font-size="34" xml:space="preserve" y="0.8em" font-weight="bold" text-anchor="middle" pointer-events="visible" font-family="Open Sans" fill="#ffffff" transform="matrix(1,0,0,1,225,88.1)" style="fill: rgb(255, 255, 255);"><tspan dy="0" >NBSS MESH mailbox</tspan></text><text  id="v-215" font-size="17" xml:space="preserve" y="0.8em" text-anchor="middle" font-family="Open Sans" fill="#ffffff" transform="matrix(1,0,0,1,225,128.9)" style="fill: rgb(255, 255, 255);"><tspan dy="0" >[Software System]</tspan></text><text  id="v-216" font-size="24" xml:space="preserve" y="0.8em" text-anchor="middle" font-family="Open Sans" fill="#ffffff" transform="matrix(1,0,0,1,225,159.3)" style="fill: rgb(255, 255, 255);"><tspan dy="0" >Events from NBSS in each breast</tspan><tspan dy="1.2em" x="0" >screening office</tspan></text><g  id="v-217" color="#ffffff" transform="matrix(1,0,0,1,222.5,268)" display="none" style="fill: rgb(255, 255, 255);"><g ></g><g ></g><g ></g><g ></g></g><image  id="v-218"></image></g></g><!--z-index:22--><g   id="j_21"  transform="translate(969,165)" style=""><g  id="v-222" style="opacity: 1;"><rect  id="v-223" rx="20" ry="20" stroke="#999999" stroke-width="2" pointer-events="visiblePainted" fill="#aaaaaa" width="450" height="300" style="fill: rgb(170, 170, 170); stroke: rgb(153, 153, 153);"></rect><text  id="v-224" font-size="34" xml:space="preserve" y="0.8em" font-weight="bold" text-anchor="middle" pointer-events="visible" font-family="Open Sans" fill="#ffffff" transform="matrix(1,0,0,1,225,88.1)" style="fill: rgb(255, 255, 255);"><tspan dy="0" >NHS Notify</tspan></text><text  id="v-225" font-size="17" xml:space="preserve" y="0.8em" text-anchor="middle" font-family="Open Sans" fill="#ffffff" transform="matrix(1,0,0,1,225,128.9)" style="fill: rgb(255, 255, 255);"><tspan dy="0" >[Software System]</tspan></text><text  id="v-226" font-size="24" xml:space="preserve" y="0.8em" text-anchor="middle" font-family="Open Sans" fill="#ffffff" transform="matrix(1,0,0,1,225,159.3)" style="fill: rgb(255, 255, 255);"><tspan dy="0" >Send invitations via NHS app, SMS,</tspan><tspan dy="1.2em" x="0" >post</tspan></text><g  id="v-227" color="#ffffff" transform="matrix(1,0,0,1,222.5,268)" display="none" style="fill: rgb(255, 255, 255);"><g ></g><g ></g><g ></g><g ></g></g><image  id="v-228"></image></g></g><!--z-index:23--><g   id="j_22"  transform="translate(1627,1365)" style=""><g  id="v-232" style="opacity: 1;"><rect  id="v-233" rx="20" ry="20" stroke="#0000e6" stroke-width="2" pointer-events="visiblePainted" fill="#0000ff" width="450" height="300" style="fill: rgb(0, 0, 255); stroke: rgb(0, 0, 230);"></rect><text  id="v-234" font-size="34" xml:space="preserve" y="0.8em" font-weight="bold" text-anchor="middle" pointer-events="visible" font-family="Open Sans" fill="#ffffff" transform="matrix(1,0,0,1,225,102.5)" style="fill: rgb(255, 255, 255);"><tspan dy="0" >Azure relay</tspan></text><text  id="v-235" font-size="17" xml:space="preserve" y="0.8em" text-anchor="middle" font-family="Open Sans" fill="#ffffff" transform="matrix(1,0,0,1,225,143.3)" style="fill: rgb(255, 255, 255);"><tspan dy="0" >[Software System]</tspan></text><text  id="v-236" font-size="24" xml:space="preserve" y="0.8em" text-anchor="middle" font-family="Open Sans" fill="#ffffff" transform="matrix(1,0,0,1,225,173.7)" style="fill: rgb(255, 255, 255);"><tspan dy="0" >Securely exposes services</tspan></text><g  id="v-237" color="#ffffff" transform="matrix(1,0,0,1,222.5,268)" display="none" style="fill: rgb(255, 255, 255);"><g ></g><g ></g><g ></g><g ></g></g><image  id="v-238"></image></g></g><!--z-index:24--><g   id="j_24"  transform="translate(199,745)" style=""><g id="v-252"><rect  id="v-253" width="1240" height="1011" rx="0" ry="0" fill="#ffffff" stroke="#0f5eaa" stroke-width="1" stroke-dasharray="20,20" pointer-events="none"></rect><text  id="v-254" font-size="24px" xml:space="preserve" y="972" font-weight="normal" fill="#0f5eaa" text-anchor="start" pointer-events="visible" font-family="Open Sans" transform="matrix(1,0,0,1,15,0)"><tspan dy="0" >Breast Screening System</tspan></text><text  id="v-255" font-size="17px" xml:space="preserve" y="996" font-weight="normal" fill="#0f5eaa" text-anchor="start" pointer-events="visible" font-family="Open Sans" transform="matrix(1,0,0,1,15,0)"><tspan dy="0" >[Software System]</tspan></text><image  id="v-256" pointer-events="visible"></image></g></g><!--z-index:25--><g   id="j_23"  transform="translate(219,765)" style=""><g  id="v-245" style="opacity: 1;"><rect  id="v-246" rx="20" ry="20" stroke="#3c7fc0" stroke-width="2" pointer-events="visiblePainted" fill="#438dd5" width="450" height="300" style="fill: rgb(67, 141, 213); stroke: rgb(60, 127, 192);"></rect><text  id="v-247" font-size="34" xml:space="preserve" y="0.8em" font-weight="bold" text-anchor="middle" pointer-events="visible" font-family="Open Sans" fill="#ffffff" transform="matrix(1,0,0,1,225,73.7)" style="fill: rgb(255, 255, 255);"><tspan dy="0" >Manage Breast Screening</tspan></text><text  id="v-248" font-size="17" xml:space="preserve" y="0.8em" text-anchor="middle" font-family="Open Sans" fill="#ffffff" transform="matrix(1,0,0,1,225,114.5)" style="fill: rgb(255, 255, 255);"><tspan dy="0" >[Container: Container app Web]</tspan></text><text  id="v-249" font-size="24" xml:space="preserve" y="0.8em" text-anchor="middle" font-family="Open Sans" fill="#ffffff" transform="matrix(1,0,0,1,225,144.9)" style="fill: rgb(255, 255, 255);"><tspan dy="0" >Allows users to manage breast</tspan><tspan dy="1.2em" x="0" >screening appointments and</tspan><tspan dy="1.2em" x="0" >records</tspan></text><g  id="v-250" color="#ffffff" transform="matrix(1,0,0,1,222.5,268)" display="none" style="fill: rgb(255, 255, 255);"><g ></g><g ></g><g ></g><g ></g></g><image  id="v-251"></image></g></g><!--z-index:26--><g   id="j_25"  transform="translate(219,1365)" style=""><g  id="v-260" style="opacity: 1;"><path  d="M 0,30 a 225,30 0,0,0 450 0 a 225,30 0,0,0 -450 0 l 0,240 a 225,30 0,0,0 450 0 l 0,-240" id="v-261" stroke="#0000e6" stroke-width="2" pointer-events="visiblePainted" fill="#0000ff" style="fill: rgb(0, 0, 255); stroke: rgb(0, 0, 230);"></path><rect  id="v-262" stroke-width="0" pointer-events="visiblePainted" fill="none" stroke="none" width="450" height="270" x="0" y="30"></rect><text  id="v-263" font-size="34" xml:space="preserve" y="0.8em" font-weight="bold" text-anchor="middle" pointer-events="visible" font-family="Open Sans" fill="#ffffff" transform="matrix(1,0,0,1,225,125)" style="fill: rgb(255, 255, 255);"><tspan dy="0" >Database</tspan></text><text  id="v-264" font-size="17" xml:space="preserve" y="0.8em" text-anchor="middle" font-family="Open Sans" fill="#ffffff" transform="matrix(1,0,0,1,225,165.8)" style="fill: rgb(255, 255, 255);"><tspan dy="0" >[Container: Managed Azure postgres]</tspan></text><text  id="v-265" font-size="24" xml:space="preserve" y="0.8em" text-anchor="middle" font-family="Open Sans" fill="#ffffff" transform="matrix(1,0,0,1,225,196.2)" style="fill: rgb(255, 255, 255);"><tspan dy="0" >Stores screening data</tspan></text><g  id="v-266" font-weight="normal" text-anchor="middle" color="#ffffff" transform="matrix(1,0,0,1,222.5,268)" display="none" style="fill: rgb(255, 255, 255);"><g ></g><g ></g><g ></g><g ></g></g><image  id="v-267"></image></g></g><!--z-index:27--><g   id="j_26"  transform="translate(969,765)" style=""><g  id="v-274" style="opacity: 1;"><rect  id="v-275" rx="20" ry="20" stroke="#3c7fc0" stroke-width="2" pointer-events="visiblePainted" fill="#438dd5" width="450" height="300" style="fill: rgb(67, 141, 213); stroke: rgb(60, 127, 192);"></rect><text  id="v-276" font-size="34" xml:space="preserve" y="0.8em" font-weight="bold" text-anchor="middle" pointer-events="visible" font-family="Open Sans" fill="#ffffff" transform="matrix(1,0,0,1,225,102.5)" style="fill: rgb(255, 255, 255);"><tspan dy="0" >Functions</tspan></text><text  id="v-277" font-size="17" xml:space="preserve" y="0.8em" text-anchor="middle" font-family="Open Sans" fill="#ffffff" transform="matrix(1,0,0,1,225,143.3)" style="fill: rgb(255, 255, 255);"><tspan dy="0" >[Container: Event driven container app jobs]</tspan></text><text  id="v-278" font-size="24" xml:space="preserve" y="0.8em" text-anchor="middle" font-family="Open Sans" fill="#ffffff" transform="matrix(1,0,0,1,225,173.7)" style="fill: rgb(255, 255, 255);"><tspan dy="0" >Process events asynchronously</tspan></text><g  id="v-279" color="#ffffff" transform="matrix(1,0,0,1,210,268)" display="none" style="fill: rgb(255, 255, 255);"><g  transform="translate(5 0)"><svg xmlns="http://www.w3.org/2000/svg" width="20" height="20" fill="currentColor" viewBox="0 0 16 16"><path fill-rule="evenodd" d="M6.5 12a5.5 5.5 0 1 0 0-11 5.5 5.5 0 0 0 0 11zM13 6.5a6.5 6.5 0 1 1-13 0 6.5 6.5 0 0 1 13 0z"></path><path d="M10.344 11.742c.03.04.062.078.098.115l3.85 3.85a1 1 0 0 0 1.415-1.414l-3.85-3.85a1.007 1.007 0 0 0-.115-.1 6.538 6.538 0 0 1-1.398 1.4z"></path><path fill-rule="evenodd" d="M6.5 3a.5.5 0 0 1 .5.5V6h2.5a.5.5 0 0 1 0 1H7v2.5a.5.5 0 0 1-1 0V7H3.5a.5.5 0 0 1 0-1H6V3.5a.5.5 0 0 1 .5-.5z"></path></svg></g><g ></g><g ></g><g ></g></g><image  id="v-280"></image></g></g><!--z-index:28--><g   id="j_27" ><path  stroke="#707070" d="M 444 1065 L 444 1365" id="v-293" stroke-width="2" stroke-dasharray="30 30" fill="none" style="opacity: 1;"></path><path  fill="black" stroke="black" d="M 0 0 0 0" transform="matrix(6.123233995736766e-17,1,-1,6.123233995736766e-17,444,1065)"></path><path  fill="#707070" stroke="#707070" d="M 20 0 L 0 10 L 20 20 z" id="v-295" transform="matrix(-1.8369701987210297e-16,-1,1,-1.8369701987210297e-16,434.00000000000006,1365)" style="opacity: 1;"></path><path  d="M 444 1065 L 444 1365" id="v-294" fill="none" style="cursor: auto; pointer-events: visiblepainted;"></path><g ><g id="v-287"  label-idx="0" cursor="move" transform="matrix(1,0,0,1,444,1215)" style="cursor: default; opacity: 1;"><rect joint-selector="rect" id="v-290" fill="#ffffff" rx="3" ry="3" pointer-events="none" width="177.49842834472656" height="61.05032920837402" transform="matrix(1,0,0,1,-88.7,-30.5)"></rect><text joint-selector="text" id="v-289" font-size="24px" xml:space="preserve" y="0.8em" fill="#707070" text-anchor="middle" pointer-events="none" font-family="Open Sans" font-weight="normal" transform="matrix(1,0,0,1,0,-24.1)"><tspan dy="0" >Reads from and</tspan><tspan dy="1.2em" x="0" >writes to</tspan></text></g><g id="v-288"  label-idx="1" cursor="move" transform="matrix(1,0,0,1,434,1255.800048828125)" style="cursor: default; opacity: 1;"><rect joint-selector="rect" id="v-292" fill="#ffffff" rx="3" ry="3"  width="0" height="0" transform="matrix(1,0,0,1,0,0)" display="none"></rect><text joint-selector="text" id="v-291" fill="#000000" font-size="14" text-anchor="middle" pointer-events="none"></text></g></g><g  display="none" style="display: none;"></g><g  id="v-297" display="none"><g  id="v-285"><path  end="source" d="M 26 0 L 0 13 L 26 26 z"></path></g><g  id="v-286"><path  end="target" d="M 26 0 L 0 13 L 26 26 z"></path></g></g><g  id="v-296" display="none"><g  id="v-284" transform="translate(444, 1105) "><g  event="remove"><circle r="11"></circle><path transform="scale(.8) translate(-16, -16)" d="M24.778,21.419 19.276,15.917 24.777,10.415 21.949,7.585 16.447,13.087 10.945,7.585 8.117,10.415 13.618,15.917 8.116,21.419 10.946,24.248 16.447,18.746 21.948,24.248z"></path><title>Remove link.</title></g><g  event="link:options"><circle r="11" transform="translate(25)"></circle><path fill="white" transform="scale(.55) translate(29, -16)" d="M31.229,17.736c0.064-0.571,0.104-1.148,0.104-1.736s-0.04-1.166-0.104-1.737l-4.377-1.557c-0.218-0.716-0.504-1.401-0.851-2.05l1.993-4.192c-0.725-0.91-1.549-1.734-2.458-2.459l-4.193,1.994c-0.647-0.347-1.334-0.632-2.049-0.849l-1.558-4.378C17.165,0.708,16.588,0.667,16,0.667s-1.166,0.041-1.737,0.105L12.707,5.15c-0.716,0.217-1.401,0.502-2.05,0.849L6.464,4.005C5.554,4.73,4.73,5.554,4.005,6.464l1.994,4.192c-0.347,0.648-0.632,1.334-0.849,2.05l-4.378,1.557C0.708,14.834,0.667,15.412,0.667,16s0.041,1.165,0.105,1.736l4.378,1.558c0.217,0.715,0.502,1.401,0.849,2.049l-1.994,4.193c0.725,0.909,1.549,1.733,2.459,2.458l4.192-1.993c0.648,0.347,1.334,0.633,2.05,0.851l1.557,4.377c0.571,0.064,1.148,0.104,1.737,0.104c0.588,0,1.165-0.04,1.736-0.104l1.558-4.377c0.715-0.218,1.399-0.504,2.049-0.851l4.193,1.993c0.909-0.725,1.733-1.549,2.458-2.458l-1.993-4.193c0.347-0.647,0.633-1.334,0.851-2.049L31.229,17.736zM16,20.871c-2.69,0-4.872-2.182-4.872-4.871c0-2.69,2.182-4.872,4.872-4.872c2.689,0,4.871,2.182,4.871,4.872C20.871,18.689,18.689,20.871,16,20.871z"></path><title>Link options.</title></g></g></g></g><!--z-index:29--><g   id="j_28" ><path  stroke="#707070" d="M 669 1005 L 810 1061 C 816 1063.6666666666665 822 1066.3333333333333 828 1069 L 1627 1417" id="v-311" stroke-width="2" stroke-dasharray="30 30" fill="none" style="opacity: 1;"></path><path  fill="black" stroke="black" d="M 0 0 0 0" transform="matrix(0.9284766955435519,0.371390664708372,-0.371390664708372,0.9284766955435519,669,1005)"></path><path  fill="#707070" stroke="#707070" d="M 20 0 L 0 10 L 20 20 z" id="v-313" transform="matrix(-0.9167894954584597,-0.39937078137618304,0.39937078137618304,-0.9167894954584597,1623.006340461135,1426.1479308933463)" style="opacity: 1;"></path><path  d="M 669 1005 L 810 1061 C 816 1063.6666666666665 822 1066.3333333333333 828 1069 L 1627 1417" id="v-312" fill="none" style="cursor: auto; pointer-events: visiblepainted;"></path><g ><g id="v-305"  label-idx="0" cursor="move" transform="matrix(1,0,0,1,1148.923828125,1208.776611328125)" style="cursor: default; opacity: 1;"><rect joint-selector="rect" id="v-308" fill="#ffffff" rx="3" ry="3" pointer-events="none" width="153.34542846679688" height="118.65033721923828" transform="matrix(1,0,0,1,-76.7,-59.3)"></rect><text joint-selector="text" id="v-307" font-size="24px" xml:space="preserve" y="0.8em" fill="#707070" text-anchor="middle" pointer-events="none" font-family="Open Sans" font-weight="normal" transform="matrix(1,0,0,1,0,-52.9)"><tspan dy="0" >Creates</tspan><tspan dy="1.2em" x="0" >bidirectional</tspan><tspan dy="1.2em" x="0" >connection to</tspan><tspan dy="1.2em" x="0" >gateway</tspan></text></g><g id="v-306"  label-idx="1" cursor="move" transform="matrix(1,0,0,1,1138.923828125,1278.3765869140625)" style="cursor: default; opacity: 1;"><rect joint-selector="rect" id="v-310" fill="#ffffff" rx="3" ry="3"  width="0" height="0" transform="matrix(1,0,0,1,0,0)" display="none"></rect><text joint-selector="text" id="v-309" fill="#000000" font-size="14" text-anchor="middle" pointer-events="none"></text></g></g><g  display="none" style="display: none;"><g  transform="translate(819, 1065)" id="v-393"><circle  idx="0" r="10"></circle><path  idx="0" d="M16,5.333c-7.732,0-14,4.701-14,10.5c0,1.982,0.741,3.833,2.016,5.414L2,25.667l5.613-1.441c2.339,1.317,5.237,2.107,8.387,2.107c7.732,0,14-4.701,14-10.5C30,10.034,23.732,5.333,16,5.333z" transform="translate(5, -33)"></path><path  idx="0" transform="scale(.8) translate(9.5, -37)" d="M24.778,21.419 19.276,15.917 24.777,10.415 21.949,7.585 16.447,13.087 10.945,7.585 8.117,10.415 13.618,15.917 8.116,21.419 10.946,24.248 16.447,18.746 21.948,24.248z"><title>Remove vertex.</title></path></g></g><g  id="v-315" display="none"><g  id="v-303"><path  end="source" d="M 26 0 L 0 13 L 26 26 z"></path></g><g  id="v-304"><path  end="target" d="M 26 0 L 0 13 L 26 26 z"></path></g></g><g  id="v-314" display="none"><g  id="v-301" transform="translate(706.1753225311057, 1019.7646671045526) "><g  event="remove"><circle r="11"></circle><path transform="scale(.8) translate(-16, -16)" d="M24.778,21.419 19.276,15.917 24.777,10.415 21.949,7.585 16.447,13.087 10.945,7.585 8.117,10.415 13.618,15.917 8.116,21.419 10.946,24.248 16.447,18.746 21.948,24.248z"></path><title>Remove link.</title></g><g  event="link:options"><circle r="11" transform="translate(25)"></circle><path fill="white" transform="scale(.55) translate(29, -16)" d="M31.229,17.736c0.064-0.571,0.104-1.148,0.104-1.736s-0.04-1.166-0.104-1.737l-4.377-1.557c-0.218-0.716-0.504-1.401-0.851-2.05l1.993-4.192c-0.725-0.91-1.549-1.734-2.458-2.459l-4.193,1.994c-0.647-0.347-1.334-0.632-2.049-0.849l-1.558-4.378C17.165,0.708,16.588,0.667,16,0.667s-1.166,0.041-1.737,0.105L12.707,5.15c-0.716,0.217-1.401,0.502-2.05,0.849L6.464,4.005C5.554,4.73,4.73,5.554,4.005,6.464l1.994,4.192c-0.347,0.648-0.632,1.334-0.849,2.05l-4.378,1.557C0.708,14.834,0.667,15.412,0.667,16s0.041,1.165,0.105,1.736l4.378,1.558c0.217,0.715,0.502,1.401,0.849,2.049l-1.994,4.193c0.725,0.909,1.549,1.733,2.459,2.458l4.192-1.993c0.648,0.347,1.334,0.633,2.05,0.851l1.557,4.377c0.571,0.064,1.148,0.104,1.737,0.104c0.588,0,1.165-0.04,1.736-0.104l1.558-4.377c0.715-0.218,1.399-0.504,2.049-0.851l4.193,1.993c0.909-0.725,1.733-1.549,2.458-2.458l-1.993-4.193c0.347-0.647,0.633-1.334,0.851-2.049L31.229,17.736zM16,20.871c-2.69,0-4.872-2.182-4.872-4.871c0-2.69,2.182-4.872,4.872-4.872c2.689,0,4.871,2.182,4.871,4.872C20.871,18.689,18.689,20.871,16,20.871z"></path><title>Link options.</title></g></g></g></g><!--z-index:30--><g   id="j_29" ><path  stroke="#707070" d="M 444 465 L 444 765" id="v-328" stroke-width="2" stroke-dasharray="30 30" fill="none" style="opacity: 1;"></path><path  fill="black" stroke="black" d="M 0 0 0 0" transform="matrix(6.123233995736766e-17,1,-1,6.123233995736766e-17,444,465)"></path><path  fill="#707070" stroke="#707070" d="M 20 0 L 0 10 L 20 20 z" id="v-330" transform="matrix(-1.8369701987210297e-16,-1,1,-1.8369701987210297e-16,434.00000000000006,764.9999999999999)" style="opacity: 1;"></path><path  d="M 444 465 L 444 765" id="v-329" fill="none" style="cursor: auto; pointer-events: visiblepainted;"></path><g ><g id="v-322"  label-idx="0" cursor="move" transform="matrix(1,0,0,1,444,615)" style="cursor: default; opacity: 1;"><rect joint-selector="rect" id="v-325" fill="#ffffff" rx="3" ry="3" pointer-events="none" width="162.74598693847656" height="89.85033416748047" transform="matrix(1,0,0,1,-81.4,-44.9)"></rect><text joint-selector="text" id="v-324" font-size="24px" xml:space="preserve" y="0.8em" fill="#707070" text-anchor="middle" pointer-events="none" font-family="Open Sans" font-weight="normal" transform="matrix(1,0,0,1,0,-38.5)"><tspan dy="0" >Provides</tspan><tspan dy="1.2em" x="0" >authentication</tspan><tspan dy="1.2em" x="0" >token to</tspan></text></g><g id="v-323"  label-idx="1" cursor="move" transform="matrix(1,0,0,1,434,670.2000122070312)" style="cursor: default; opacity: 1;"><rect joint-selector="rect" id="v-327" fill="#ffffff" rx="3" ry="3"  width="0" height="0" transform="matrix(1,0,0,1,0,0)" display="none"></rect><text joint-selector="text" id="v-326" fill="#000000" font-size="14" text-anchor="middle" pointer-events="none"></text></g></g><g  display="none" style="display: none;"></g><g  id="v-332" display="none"><g  id="v-320"><path  end="source" d="M 26 0 L 0 13 L 26 26 z"></path></g><g  id="v-321"><path  end="target" d="M 26 0 L 0 13 L 26 26 z"></path></g></g><g  id="v-331" display="none"><g  id="v-319" transform="translate(444, 505) "><g  event="remove"><circle r="11"></circle><path transform="scale(.8) translate(-16, -16)" d="M24.778,21.419 19.276,15.917 24.777,10.415 21.949,7.585 16.447,13.087 10.945,7.585 8.117,10.415 13.618,15.917 8.116,21.419 10.946,24.248 16.447,18.746 21.948,24.248z"></path><title>Remove link.</title></g><g  event="link:options"><circle r="11" transform="translate(25)"></circle><path fill="white" transform="scale(.55) translate(29, -16)" d="M31.229,17.736c0.064-0.571,0.104-1.148,0.104-1.736s-0.04-1.166-0.104-1.737l-4.377-1.557c-0.218-0.716-0.504-1.401-0.851-2.05l1.993-4.192c-0.725-0.91-1.549-1.734-2.458-2.459l-4.193,1.994c-0.647-0.347-1.334-0.632-2.049-0.849l-1.558-4.378C17.165,0.708,16.588,0.667,16,0.667s-1.166,0.041-1.737,0.105L12.707,5.15c-0.716,0.217-1.401,0.502-2.05,0.849L6.464,4.005C5.554,4.73,4.73,5.554,4.005,6.464l1.994,4.192c-0.347,0.648-0.632,1.334-0.849,2.05l-4.378,1.557C0.708,14.834,0.667,15.412,0.667,16s0.041,1.165,0.105,1.736l4.378,1.558c0.217,0.715,0.502,1.401,0.849,2.049l-1.994,4.193c0.725,0.909,1.549,1.733,2.459,2.458l4.192-1.993c0.648,0.347,1.334,0.633,2.05,0.851l1.557,4.377c0.571,0.064,1.148,0.104,1.737,0.104c0.588,0,1.165-0.04,1.736-0.104l1.558-4.377c0.715-0.218,1.399-0.504,2.049-0.851l4.193,1.993c0.909-0.725,1.733-1.549,2.458-2.458l-1.993-4.193c0.347-0.647,0.633-1.334,0.851-2.049L31.229,17.736zM16,20.871c-2.69,0-4.872-2.182-4.872-4.871c0-2.69,2.182-4.872,4.872-4.872c2.689,0,4.871,2.182,4.871,4.872C20.871,18.689,18.689,20.871,16,20.871z"></path><title>Link options.</title></g></g></g></g><!--z-index:31--><g   id="j_30" ><path  stroke="#707070" d="M 1419 1011 L 2377 1419" id="v-345" stroke-width="2" stroke-dasharray="30 30" fill="none" style="opacity: 1;"></path><path  fill="black" stroke="black" d="M 0 0 0 0" transform="matrix(0.9199536952173463,0.39202703816949913,-0.39202703816949913,0.9199536952173463,1419,1010.8800048828125)"></path><path  fill="#707070" stroke="#707070" d="M 20 0 L 0 10 L 20 20 z" id="v-347" transform="matrix(-0.9199536821669564,-0.3920270687943098,0.3920270687943098,-0.9199536821669564,2373.079803243101,1428.3195145408627)" style="opacity: 1;"></path><path  d="M 1419 1011 L 2377 1419" id="v-346" fill="none" style="cursor: auto; pointer-events: visiblepainted;"></path><g ><g id="v-339"  label-idx="0" cursor="move" transform="matrix(1,0,0,1,1993.800048828125,1255.800048828125)" style="cursor: default; opacity: 1;"><rect joint-selector="rect" id="v-342" fill="#ffffff" rx="3" ry="3" pointer-events="none" width="156.87281799316406" height="89.85033416748047" transform="matrix(1,0,0,1,-78.4,-44.9)"></rect><text joint-selector="text" id="v-341" font-size="24px" xml:space="preserve" y="0.8em" fill="#707070" text-anchor="middle" pointer-events="none" font-family="Open Sans" font-weight="normal" transform="matrix(1,0,0,1,0,-38.5)"><tspan dy="0" >Fetches</tspan><tspan dy="1.2em" x="0" >appointments</tspan><tspan dy="1.2em" x="0" >from</tspan></text></g><g id="v-340"  label-idx="1" cursor="move" transform="matrix(1,0,0,1,1983.800048828125,1311)" style="cursor: default; opacity: 1;"><rect joint-selector="rect" id="v-344" fill="#ffffff" rx="3" ry="3"  width="0" height="0" transform="matrix(1,0,0,1,0,0)" display="none"></rect><text joint-selector="text" id="v-343" fill="#000000" font-size="14" text-anchor="middle" pointer-events="none"></text></g></g><g  display="none" style="display: none;"></g><g  id="v-349" display="none"><g  id="v-337"><path  end="source" d="M 26 0 L 0 13 L 26 26 z"></path></g><g  id="v-338"><path  end="target" d="M 26 0 L 0 13 L 26 26 z"></path></g></g><g  id="v-348" display="none"><g  id="v-336" transform="translate(1455.8014720819097, 1026.6732782979323) "><g  event="remove"><circle r="11"></circle><path transform="scale(.8) translate(-16, -16)" d="M24.778,21.419 19.276,15.917 24.777,10.415 21.949,7.585 16.447,13.087 10.945,7.585 8.117,10.415 13.618,15.917 8.116,21.419 10.946,24.248 16.447,18.746 21.948,24.248z"></path><title>Remove link.</title></g><g  event="link:options"><circle r="11" transform="translate(25)"></circle><path fill="white" transform="scale(.55) translate(29, -16)" d="M31.229,17.736c0.064-0.571,0.104-1.148,0.104-1.736s-0.04-1.166-0.104-1.737l-4.377-1.557c-0.218-0.716-0.504-1.401-0.851-2.05l1.993-4.192c-0.725-0.91-1.549-1.734-2.458-2.459l-4.193,1.994c-0.647-0.347-1.334-0.632-2.049-0.849l-1.558-4.378C17.165,0.708,16.588,0.667,16,0.667s-1.166,0.041-1.737,0.105L12.707,5.15c-0.716,0.217-1.401,0.502-2.05,0.849L6.464,4.005C5.554,4.73,4.73,5.554,4.005,6.464l1.994,4.192c-0.347,0.648-0.632,1.334-0.849,2.05l-4.378,1.557C0.708,14.834,0.667,15.412,0.667,16s0.041,1.165,0.105,1.736l4.378,1.558c0.217,0.715,0.502,1.401,0.849,2.049l-1.994,4.193c0.725,0.909,1.549,1.733,2.459,2.458l4.192-1.993c0.648,0.347,1.334,0.633,2.05,0.851l1.557,4.377c0.571,0.064,1.148,0.104,1.737,0.104c0.588,0,1.165-0.04,1.736-0.104l1.558-4.377c0.715-0.218,1.399-0.504,2.049-0.851l4.193,1.993c0.909-0.725,1.733-1.549,2.458-2.458l-1.993-4.193c0.347-0.647,0.633-1.334,0.851-2.049L31.229,17.736zM16,20.871c-2.69,0-4.872-2.182-4.872-4.871c0-2.69,2.182-4.872,4.872-4.872c2.689,0,4.871,2.182,4.871,4.872C20.871,18.689,18.689,20.871,16,20.871z"></path><title>Link options.</title></g></g></g></g><!--z-index:32--><g   id="j_31" ><path  stroke="#707070" d="M 1194 765 L 1194 465" id="v-362" stroke-width="2" stroke-dasharray="30 30" fill="none" style="opacity: 1;"></path><path  fill="black" stroke="black" d="M 0 0 0 0" transform="matrix(-1.8369701987210297e-16,-1,1,-1.8369701987210297e-16,1194,765)"></path><path  fill="#707070" stroke="#707070" d="M 20 0 L 0 10 L 20 20 z" id="v-364" transform="matrix(6.123233995736766e-17,1,-1,6.123233995736766e-17,1204,465.0000000000001)" style="opacity: 1;"></path><path  d="M 1194 765 L 1194 465" id="v-363" fill="none" style="cursor: auto; pointer-events: visiblepainted;"></path><g ><g id="v-356"  label-idx="0" cursor="move" transform="matrix(1,0,0,1,1194,615)" style="cursor: default; opacity: 1;"><rect joint-selector="rect" id="v-359" fill="#ffffff" rx="3" ry="3" pointer-events="none" width="172.12916564941406" height="61.05032920837402" transform="matrix(1,0,0,1,-86.1,-30.5)"></rect><text joint-selector="text" id="v-358" font-size="24px" xml:space="preserve" y="0.8em" fill="#707070" text-anchor="middle" pointer-events="none" font-family="Open Sans" font-weight="normal" transform="matrix(1,0,0,1,0,-24.1)"><tspan dy="0" >Sends message</tspan><tspan dy="1.2em" x="0" >requests</tspan></text></g><g id="v-357"  label-idx="1" cursor="move" transform="matrix(1,0,0,1,1184,655.7999877929688)" style="cursor: default; opacity: 1;"><rect joint-selector="rect" id="v-361" fill="#ffffff" rx="3" ry="3"  width="0" height="0" transform="matrix(1,0,0,1,0,0)" display="none"></rect><text joint-selector="text" id="v-360" fill="#000000" font-size="14" text-anchor="middle" pointer-events="none"></text></g></g><g  display="none" style="display: none;"></g><g  id="v-366" display="none"><g  id="v-354"><path  end="source" d="M 26 0 L 0 13 L 26 26 z"></path></g><g  id="v-355"><path  end="target" d="M 26 0 L 0 13 L 26 26 z"></path></g></g><g  id="v-365" display="none"><g  id="v-353" transform="translate(1194, 725) "><g  event="remove"><circle r="11"></circle><path transform="scale(.8) translate(-16, -16)" d="M24.778,21.419 19.276,15.917 24.777,10.415 21.949,7.585 16.447,13.087 10.945,7.585 8.117,10.415 13.618,15.917 8.116,21.419 10.946,24.248 16.447,18.746 21.948,24.248z"></path><title>Remove link.</title></g><g  event="link:options"><circle r="11" transform="translate(25)"></circle><path fill="white" transform="scale(.55) translate(29, -16)" d="M31.229,17.736c0.064-0.571,0.104-1.148,0.104-1.736s-0.04-1.166-0.104-1.737l-4.377-1.557c-0.218-0.716-0.504-1.401-0.851-2.05l1.993-4.192c-0.725-0.91-1.549-1.734-2.458-2.459l-4.193,1.994c-0.647-0.347-1.334-0.632-2.049-0.849l-1.558-4.378C17.165,0.708,16.588,0.667,16,0.667s-1.166,0.041-1.737,0.105L12.707,5.15c-0.716,0.217-1.401,0.502-2.05,0.849L6.464,4.005C5.554,4.73,4.73,5.554,4.005,6.464l1.994,4.192c-0.347,0.648-0.632,1.334-0.849,2.05l-4.378,1.557C0.708,14.834,0.667,15.412,0.667,16s0.041,1.165,0.105,1.736l4.378,1.558c0.217,0.715,0.502,1.401,0.849,2.049l-1.994,4.193c0.725,0.909,1.549,1.733,2.459,2.458l4.192-1.993c0.648,0.347,1.334,0.633,2.05,0.851l1.557,4.377c0.571,0.064,1.148,0.104,1.737,0.104c0.588,0,1.165-0.04,1.736-0.104l1.558-4.377c0.715-0.218,1.399-0.504,2.049-0.851l4.193,1.993c0.909-0.725,1.733-1.549,2.458-2.458l-1.993-4.193c0.347-0.647,0.633-1.334,0.851-2.049L31.229,17.736zM16,20.871c-2.69,0-4.872-2.182-4.872-4.871c0-2.69,2.182-4.872,4.872-4.872c2.689,0,4.871,2.182,4.871,4.872C20.871,18.689,18.689,20.871,16,20.871z"></path><title>Link options.</title></g></g></g></g><!--z-index:33--><g   id="j_32" ><path  stroke="#707070" d="M 1007 465 L 632 765" id="v-379" stroke-width="2" stroke-dasharray="30 30" fill="none" style="opacity: 1;"></path><path  fill="black" stroke="black" d="M 0 0 0 0" transform="matrix(-0.7808688416748546,0.6246950072646418,-0.6246950072646418,-0.7808688416748546,1006.5,465)"></path><path  fill="#707070" stroke="#707070" d="M 20 0 L 0 10 L 20 20 z" id="v-381" transform="matrix(0.7808686753084834,-0.624695215222571,0.624695215222571,0.7808686753084834,625.2530769150021,757.1913171569533)" style="opacity: 1;"></path><path  d="M 1007 465 L 632 765" id="v-380" fill="none" style="cursor: auto; pointer-events: visiblepainted;"></path><g ><g id="v-373"  label-idx="0" cursor="move" transform="matrix(1,0,0,1,819.5,615)" style="cursor: default; opacity: 1;"><rect joint-selector="rect" id="v-376" fill="#ffffff" rx="3" ry="3" pointer-events="none" width="141.75547790527344" height="61.05032920837402" transform="matrix(1,0,0,1,-70.9,-30.5)"></rect><text joint-selector="text" id="v-375" font-size="24px" xml:space="preserve" y="0.8em" fill="#707070" text-anchor="middle" pointer-events="none" font-family="Open Sans" font-weight="normal" transform="matrix(1,0,0,1,0,-24.1)"><tspan dy="0" >Sends status</tspan><tspan dy="1.2em" x="0" >updates to</tspan></text></g><g id="v-374"  label-idx="1" cursor="move" transform="matrix(1,0,0,1,809.5,655.7999877929688)" style="cursor: default; opacity: 1;"><rect joint-selector="rect" id="v-378" fill="#ffffff" rx="3" ry="3"  width="0" height="0" transform="matrix(1,0,0,1,0,0)" display="none"></rect><text joint-selector="text" id="v-377" fill="#000000" font-size="14" text-anchor="middle" pointer-events="none"></text></g></g><g  display="none" style="display: none;"></g><g  id="v-383" display="none"><g  id="v-371"><path  end="source" d="M 26 0 L 0 13 L 26 26 z"></path></g><g  id="v-372"><path  end="target" d="M 26 0 L 0 13 L 26 26 z"></path></g></g><g  id="v-382" display="none"><g  id="v-370" transform="translate(975.7652476222788, 489.987801902177) "><g  event="remove"><circle r="11"></circle><path transform="scale(.8) translate(-16, -16)" d="M24.778,21.419 19.276,15.917 24.777,10.415 21.949,7.585 16.447,13.087 10.945,7.585 8.117,10.415 13.618,15.917 8.116,21.419 10.946,24.248 16.447,18.746 21.948,24.248z"></path><title>Remove link.</title></g><g  event="link:options"><circle r="11" transform="translate(25)"></circle><path fill="white" transform="scale(.55) translate(29, -16)" d="M31.229,17.736c0.064-0.571,0.104-1.148,0.104-1.736s-0.04-1.166-0.104-1.737l-4.377-1.557c-0.218-0.716-0.504-1.401-0.851-2.05l1.993-4.192c-0.725-0.91-1.549-1.734-2.458-2.459l-4.193,1.994c-0.647-0.347-1.334-0.632-2.049-0.849l-1.558-4.378C17.165,0.708,16.588,0.667,16,0.667s-1.166,0.041-1.737,0.105L12.707,5.15c-0.716,0.217-1.401,0.502-2.05,0.849L6.464,4.005C5.554,4.73,4.73,5.554,4.005,6.464l1.994,4.192c-0.347,0.648-0.632,1.334-0.849,2.05l-4.378,1.557C0.708,14.834,0.667,15.412,0.667,16s0.041,1.165,0.105,1.736l4.378,1.558c0.217,0.715,0.502,1.401,0.849,2.049l-1.994,4.193c0.725,0.909,1.549,1.733,2.459,2.458l4.192-1.993c0.648,0.347,1.334,0.633,2.05,0.851l1.557,4.377c0.571,0.064,1.148,0.104,1.737,0.104c0.588,0,1.165-0.04,1.736-0.104l1.558-4.377c0.715-0.218,1.399-0.504,2.049-0.851l4.193,1.993c0.909-0.725,1.733-1.549,2.458-2.458l-1.993-4.193c0.347-0.647,0.633-1.334,0.851-2.049L31.229,17.736zM16,20.871c-2.69,0-4.872-2.182-4.872-4.871c0-2.69,2.182-4.872,4.872-4.872c2.689,0,4.871,2.182,4.871,4.872C20.871,18.689,18.689,20.871,16,20.871z"></path><title>Link options.</title></g></g></g></g><!--z-index:34--></g><g ></g><g ></g><g ></g></g></svg>