<svg xmlns="http://www.w3.org/2000/svg" xmlns:xlink="http://www.w3.org/1999/xlink" version="1.1" viewBox="0 0 1620 2141" style="background: #ffffff"><defs><style>@import url(https://fonts.googleapis.com/css?family=Open+Sans:400,700);</style></defs><defs joint-selector="defs"></defs><g joint-selector="layers"  transform="matrix(1,0,0,1,0,0)"><g ></g><g ><!--z-index:1--><!--z-index:2--><!--z-index:3--><!--z-index:4--><!--z-index:5--><!--z-index:6--><!--z-index:7--><!--z-index:8--><!--z-index:9--><!--z-index:10--><!--z-index:11--><!--z-index:12--><!--z-index:13--><!--z-index:14--><g   id="j_74"  transform="translate(20,2104.6)"><g id="v-898"><text  id="v-899" font-size="22px" xml:space="preserve" y="0.8em" font-weight="normal" text-anchor="start" fill="#aaaaaa" pointer-events="none" display="block" font-family="Open Sans"><tspan dy="0" >Monday 20 October 2025 at 11:11 British Summer Time</tspan></text></g></g><!--z-index:15--><g   id="j_73"  transform="translate(20,2061.4)"><g id="v-896"><text  id="v-897" font-size="36px" xml:space="preserve" y="0.8em" font-weight="normal" text-anchor="start" fill="#000000" pointer-events="none" display="block" font-family="Open Sans"><tspan dy="0" >[Component] Hospital Screening system - Screening gateway</tspan></text></g></g><!--z-index:16--><g   id="j_75"  transform="translate(970,615)" style=""><g  id="v-903" style="opacity: 1;"><rect  id="v-904" rx="20" ry="20" stroke="#0000e6" stroke-width="2" pointer-events="visiblePainted" fill="#0000ff" width="450" height="300" style="fill: rgb(0, 0, 255); stroke: rgb(0, 0, 230);"></rect><text  id="v-905" font-size="34" xml:space="preserve" y="0.8em" font-weight="bold" text-anchor="middle" pointer-events="visible" font-family="Open Sans" fill="#ffffff" transform="matrix(1,0,0,1,225,102.5)" style="fill: rgb(255, 255, 255);"><tspan dy="0" >Azure ARC</tspan></text><text  id="v-906" font-size="17" xml:space="preserve" y="0.8em" text-anchor="middle" font-family="Open Sans" fill="#ffffff" transform="matrix(1,0,0,1,225,143.3)" style="fill: rgb(255, 255, 255);"><tspan dy="0" >[Software System]</tspan></text><text  id="v-907" font-size="24" xml:space="preserve" y="0.8em" text-anchor="middle" font-family="Open Sans" fill="#ffffff" transform="matrix(1,0,0,1,225,173.7)" style="fill: rgb(255, 255, 255);"><tspan dy="0" >Manages external VMs at scale</tspan></text><g  id="v-908" color="#ffffff" transform="matrix(1,0,0,1,222.5,268)" display="none" style="fill: rgb(255, 255, 255);"><g ></g><g ></g><g ></g><g ></g></g><image  id="v-909"></image></g></g><!--z-index:17--><g   id="j_76"  transform="translate(220,165)" style=""><g  id="v-913" style="opacity: 1;"><rect  id="v-914" rx="20" ry="20" stroke="#0000e6" stroke-width="2" pointer-events="visiblePainted" fill="#0000ff" width="450" height="300" style="fill: rgb(0, 0, 255); stroke: rgb(0, 0, 230);"></rect><text  id="v-915" font-size="34" xml:space="preserve" y="0.8em" font-weight="bold" text-anchor="middle" pointer-events="visible" font-family="Open Sans" fill="#ffffff" transform="matrix(1,0,0,1,225,102.5)" style="fill: rgb(255, 255, 255);"><tspan dy="0" >Azure relay</tspan></text><text  id="v-916" font-size="17" xml:space="preserve" y="0.8em" text-anchor="middle" font-family="Open Sans" fill="#ffffff" transform="matrix(1,0,0,1,225,143.3)" style="fill: rgb(255, 255, 255);"><tspan dy="0" >[Software System]</tspan></text><text  id="v-917" font-size="24" xml:space="preserve" y="0.8em" text-anchor="middle" font-family="Open Sans" fill="#ffffff" transform="matrix(1,0,0,1,225,173.7)" style="fill: rgb(255, 255, 255);"><tspan dy="0" >Securely exposes services</tspan></text><g  id="v-918" color="#ffffff" transform="matrix(1,0,0,1,222.5,268)" display="none" style="fill: rgb(255, 255, 255);"><g ></g><g ></g><g ></g><g ></g></g><image  id="v-919"></image></g></g><!--z-index:18--><g   id="j_78"  transform="translate(200,595)" style=""><g id="v-927"><rect  id="v-928" width="490" height="1311" rx="0" ry="0" fill="#ffffff" stroke="#3c7fc0" stroke-width="1" stroke-dasharray="20,20" pointer-events="none"></rect><text  id="v-929" font-size="24px" xml:space="preserve" y="1272" font-weight="normal" fill="#3c7fc0" text-anchor="start" pointer-events="visible" font-family="Open Sans" transform="matrix(1,0,0,1,15,0)"><tspan dy="0" >Screening gateway</tspan></text><text  id="v-930" font-size="17px" xml:space="preserve" y="1296" font-weight="normal" fill="#3c7fc0" text-anchor="start" pointer-events="visible" font-family="Open Sans" transform="matrix(1,0,0,1,15,0)"><tspan dy="0" >[Container]</tspan></text><image  id="v-931" pointer-events="visible"></image></g></g><!--z-index:19--><g   id="j_77"  transform="translate(220,1515)" style=""><g  id="v-920" style="opacity: 1;"><rect  id="v-921" rx="20" ry="20" stroke="#78a8d8" stroke-width="2" pointer-events="visiblePainted" fill="#85bbf0" width="450" height="300" style="fill: rgb(133, 187, 240); stroke: rgb(120, 168, 216);"></rect><text  id="v-922" font-size="34" xml:space="preserve" y="0.8em" font-weight="bold" text-anchor="middle" pointer-events="visible" font-family="Open Sans" fill="#000000" transform="matrix(1,0,0,1,225,102.5)" style="fill: rgb(0, 0, 0);"><tspan dy="0" >Virtual machine</tspan></text><text  id="v-923" font-size="17" xml:space="preserve" y="0.8em" text-anchor="middle" font-family="Open Sans" fill="#000000" transform="matrix(1,0,0,1,225,143.3)" style="fill: rgb(0, 0, 0);"><tspan dy="0" >[Component]</tspan></text><text  id="v-924" font-size="24" xml:space="preserve" y="0.8em" text-anchor="middle" font-family="Open Sans" fill="#000000" transform="matrix(1,0,0,1,225,173.7)" style="fill: rgb(0, 0, 0);"><tspan dy="0" >Managed by hospital</tspan></text><g  id="v-925" color="#000000" transform="matrix(1,0,0,1,222.5,268)" display="none" style="fill: rgb(0, 0, 0);"><g ></g><g ></g><g ></g><g ></g></g><image  id="v-926"></image></g></g><!--z-index:20--><g   id="j_79"  transform="translate(220,1065)" style=""><g  id="v-935" style="opacity: 1;"><rect  id="v-936" rx="20" ry="20" stroke="#78a8d8" stroke-width="2" pointer-events="visiblePainted" fill="#85bbf0" width="450" height="300" style="fill: rgb(133, 187, 240); stroke: rgb(120, 168, 216);"></rect><text  id="v-937" font-size="34" xml:space="preserve" y="0.8em" font-weight="bold" text-anchor="middle" pointer-events="visible" font-family="Open Sans" fill="#000000" transform="matrix(1,0,0,1,225,88.1)" style="fill: rgb(0, 0, 0);"><tspan dy="0" >Azure ARC agent</tspan></text><text  id="v-938" font-size="17" xml:space="preserve" y="0.8em" text-anchor="middle" font-family="Open Sans" fill="#000000" transform="matrix(1,0,0,1,225,128.9)" style="fill: rgb(0, 0, 0);"><tspan dy="0" >[Component]</tspan></text><text  id="v-939" font-size="24" xml:space="preserve" y="0.8em" text-anchor="middle" font-family="Open Sans" fill="#000000" transform="matrix(1,0,0,1,225,159.3)" style="fill: rgb(0, 0, 0);"><tspan dy="0" >Outbound connection to receive</tspan><tspan dy="1.2em" x="0" >deployment instructions</tspan></text><g  id="v-940" color="#000000" transform="matrix(1,0,0,1,222.5,268)" display="none" style="fill: rgb(0, 0, 0);"><g ></g><g ></g><g ></g><g ></g></g><image  id="v-941"></image></g></g><!--z-index:21--><g   id="j_80"  transform="translate(220,615)" style=""><g  id="v-948" style="opacity: 1;"><rect  id="v-949" rx="20" ry="20" stroke="#78a8d8" stroke-width="2" pointer-events="visiblePainted" fill="#85bbf0" width="450" height="300" style="fill: rgb(133, 187, 240); stroke: rgb(120, 168, 216);"></rect><text  id="v-950" font-size="34" xml:space="preserve" y="0.8em" font-weight="bold" text-anchor="middle" pointer-events="visible" font-family="Open Sans" fill="#000000" transform="matrix(1,0,0,1,225,88.1)" style="fill: rgb(0, 0, 0);"><tspan dy="0" >Gateway application</tspan></text><text  id="v-951" font-size="17" xml:space="preserve" y="0.8em" text-anchor="middle" font-family="Open Sans" fill="#000000" transform="matrix(1,0,0,1,225,128.9)" style="fill: rgb(0, 0, 0);"><tspan dy="0" >[Component]</tspan></text><text  id="v-952" font-size="24" xml:space="preserve" y="0.8em" text-anchor="middle" font-family="Open Sans" fill="#000000" transform="matrix(1,0,0,1,225,159.3)" style="fill: rgb(0, 0, 0);"><tspan dy="0" >Connects to both the API in Azure</tspan><tspan dy="1.2em" x="0" >and devices in the hospital network</tspan></text><g  id="v-953" color="#000000" transform="matrix(1,0,0,1,222.5,268)" display="none" style="fill: rgb(0, 0, 0);"><g ></g><g ></g><g ></g><g ></g></g><image  id="v-954"></image></g></g><!--z-index:22--><g   id="j_81" ><path  stroke="#707070" d="M 445 1515 L 445 1365" id="v-964" stroke-width="2" stroke-dasharray="30 30" fill="none" style="opacity: 1;"></path><path  fill="black" stroke="black" d="M 0 0 0 0" transform="matrix(-1.8369701987210294e-16,-0.9999999999999999,0.9999999999999999,-1.8369701987210294e-16,445,1515)"></path><path  fill="#707070" stroke="#707070" d="M 20 0 L 0 10 L 20 20 z" id="v-966" transform="matrix(6.123233995736765e-17,0.9999999999999999,-0.9999999999999999,6.123233995736765e-17,455,1364.9999999999998)" style="opacity: 1;"></path><path  d="M 445 1515 L 445 1365" id="v-965" fill="none" style="cursor: auto; pointer-events: visiblepainted;"></path><g ><g id="v-958"  label-idx="0" cursor="move" transform="matrix(1,0,0,1,445,1440)" style="cursor: default; opacity: 1;"><rect joint-selector="rect" id="v-961" fill="#ffffff" rx="3" ry="3" pointer-events="none" width="55.697879791259766" height="32.843238830566406" transform="matrix(1,0,0,1,-27.8,-16.4)"></rect><text joint-selector="text" id="v-960" font-size="24px" xml:space="preserve" y="0.8em" fill="#707070" text-anchor="middle" pointer-events="none" font-family="Open Sans" font-weight="normal" transform="matrix(1,0,0,1,0,-9.8)"><tspan dy="0" >Runs</tspan></text></g><g id="v-959"  label-idx="1" cursor="move" transform="matrix(1,0,0,1,435,1466.4000244140625)" style="cursor: default; opacity: 1;"><rect joint-selector="rect" id="v-963" fill="#ffffff" rx="3" ry="3"  width="0" height="0" transform="matrix(1,0,0,1,0,0)" display="none"></rect><text joint-selector="text" id="v-962" fill="#000000" font-size="14" text-anchor="middle" pointer-events="none"></text></g></g><g  display="none" style="display: none;"></g><g  id="v-968" display="none"><g  id="v-956"><path  end="source" d="M 26 0 L 0 13 L 26 26 z"></path></g><g  id="v-957"><path  end="target" d="M 26 0 L 0 13 L 26 26 z"></path></g></g><g  id="v-967" display="none"><g  id="v-955" transform="translate(445.00000000000006, 1475) "><g  event="remove"><circle r="11"></circle><path transform="scale(.8) translate(-16, -16)" d="M24.778,21.419 19.276,15.917 24.777,10.415 21.949,7.585 16.447,13.087 10.945,7.585 8.117,10.415 13.618,15.917 8.116,21.419 10.946,24.248 16.447,18.746 21.948,24.248z"></path><title>Remove link.</title></g><g  event="link:options"><circle r="11" transform="translate(25)"></circle><path fill="white" transform="scale(.55) translate(29, -16)" d="M31.229,17.736c0.064-0.571,0.104-1.148,0.104-1.736s-0.04-1.166-0.104-1.737l-4.377-1.557c-0.218-0.716-0.504-1.401-0.851-2.05l1.993-4.192c-0.725-0.91-1.549-1.734-2.458-2.459l-4.193,1.994c-0.647-0.347-1.334-0.632-2.049-0.849l-1.558-4.378C17.165,0.708,16.588,0.667,16,0.667s-1.166,0.041-1.737,0.105L12.707,5.15c-0.716,0.217-1.401,0.502-2.05,0.849L6.464,4.005C5.554,4.73,4.73,5.554,4.005,6.464l1.994,4.192c-0.347,0.648-0.632,1.334-0.849,2.05l-4.378,1.557C0.708,14.834,0.667,15.412,0.667,16s0.041,1.165,0.105,1.736l4.378,1.558c0.217,0.715,0.502,1.401,0.849,2.049l-1.994,4.193c0.725,0.909,1.549,1.733,2.459,2.458l4.192-1.993c0.648,0.347,1.334,0.633,2.05,0.851l1.557,4.377c0.571,0.064,1.148,0.104,1.737,0.104c0.588,0,1.165-0.04,1.736-0.104l1.558-4.377c0.715-0.218,1.399-0.504,2.049-0.851l4.193,1.993c0.909-0.725,1.733-1.549,2.458-2.458l-1.993-4.193c0.347-0.647,0.633-1.334,0.851-2.049L31.229,17.736zM16,20.871c-2.69,0-4.872-2.182-4.872-4.871c0-2.69,2.182-4.872,4.872-4.872c2.689,0,4.871,2.182,4.871,4.872C20.871,18.689,18.689,20.871,16,20.871z"></path><title>Link options.</title></g></g></g></g><!--z-index:23--><g   id="j_82" ><path  stroke="#707070" d="M 445 1065 L 445 915" id="v-978" stroke-width="2" stroke-dasharray="30 30" fill="none" style="opacity: 1;"></path><path  fill="black" stroke="black" d="M 0 0 0 0" transform="matrix(-1.8369701987210294e-16,-0.9999999999999999,0.9999999999999999,-1.8369701987210294e-16,445,1065)"></path><path  fill="#707070" stroke="#707070" d="M 20 0 L 0 10 L 20 20 z" id="v-980" transform="matrix(6.123233995736765e-17,0.9999999999999999,-0.9999999999999999,6.123233995736765e-17,455,914.9999999999998)" style="opacity: 1;"></path><path  d="M 445 1065 L 445 915" id="v-979" fill="none" style="cursor: auto; pointer-events: visiblepainted;"></path><g ><g id="v-972"  label-idx="0" cursor="move" transform="matrix(1,0,0,1,445,990)" style="cursor: default; opacity: 1;"><rect joint-selector="rect" id="v-975" fill="#ffffff" rx="3" ry="3" pointer-events="none" width="89.53081512451172" height="32.843238830566406" transform="matrix(1,0,0,1,-44.8,-16.4)"></rect><text joint-selector="text" id="v-974" font-size="24px" xml:space="preserve" y="0.8em" fill="#707070" text-anchor="middle" pointer-events="none" font-family="Open Sans" font-weight="normal" transform="matrix(1,0,0,1,0,-9.8)"><tspan dy="0" >Deploys</tspan></text></g><g id="v-973"  label-idx="1" cursor="move" transform="matrix(1,0,0,1,435,1016.4000244140625)" style="cursor: default; opacity: 1;"><rect joint-selector="rect" id="v-977" fill="#ffffff" rx="3" ry="3"  width="0" height="0" transform="matrix(1,0,0,1,0,0)" display="none"></rect><text joint-selector="text" id="v-976" fill="#000000" font-size="14" text-anchor="middle" pointer-events="none"></text></g></g><g  display="none" style="display: none;"></g><g  id="v-982" display="none"><g  id="v-970"><path  end="source" d="M 26 0 L 0 13 L 26 26 z"></path></g><g  id="v-971"><path  end="target" d="M 26 0 L 0 13 L 26 26 z"></path></g></g><g  id="v-981" display="none"><g  id="v-969" transform="translate(445.00000000000006, 1025) "><g  event="remove"><circle r="11"></circle><path transform="scale(.8) translate(-16, -16)" d="M24.778,21.419 19.276,15.917 24.777,10.415 21.949,7.585 16.447,13.087 10.945,7.585 8.117,10.415 13.618,15.917 8.116,21.419 10.946,24.248 16.447,18.746 21.948,24.248z"></path><title>Remove link.</title></g><g  event="link:options"><circle r="11" transform="translate(25)"></circle><path fill="white" transform="scale(.55) translate(29, -16)" d="M31.229,17.736c0.064-0.571,0.104-1.148,0.104-1.736s-0.04-1.166-0.104-1.737l-4.377-1.557c-0.218-0.716-0.504-1.401-0.851-2.05l1.993-4.192c-0.725-0.91-1.549-1.734-2.458-2.459l-4.193,1.994c-0.647-0.347-1.334-0.632-2.049-0.849l-1.558-4.378C17.165,0.708,16.588,0.667,16,0.667s-1.166,0.041-1.737,0.105L12.707,5.15c-0.716,0.217-1.401,0.502-2.05,0.849L6.464,4.005C5.554,4.73,4.73,5.554,4.005,6.464l1.994,4.192c-0.347,0.648-0.632,1.334-0.849,2.05l-4.378,1.557C0.708,14.834,0.667,15.412,0.667,16s0.041,1.165,0.105,1.736l4.378,1.558c0.217,0.715,0.502,1.401,0.849,2.049l-1.994,4.193c0.725,0.909,1.549,1.733,2.459,2.458l4.192-1.993c0.648,0.347,1.334,0.633,2.05,0.851l1.557,4.377c0.571,0.064,1.148,0.104,1.737,0.104c0.588,0,1.165-0.04,1.736-0.104l1.558-4.377c0.715-0.218,1.399-0.504,2.049-0.851l4.193,1.993c0.909-0.725,1.733-1.549,2.458-2.458l-1.993-4.193c0.347-0.647,0.633-1.334,0.851-2.049L31.229,17.736zM16,20.871c-2.69,0-4.872-2.182-4.872-4.871c0-2.69,2.182-4.872,4.872-4.872c2.689,0,4.871,2.182,4.871,4.872C20.871,18.689,18.689,20.871,16,20.871z"></path><title>Link options.</title></g></g></g></g><!--z-index:24--><g   id="j_83" ><path  stroke="#707070" d="M 670 1080 L 970 900" id="v-995" stroke-width="2" stroke-dasharray="30 30" fill="none" style="opacity: 1;"></path><path  fill="black" stroke="black" d="M 0 0 0 0" transform="matrix(0.8574930282141503,-0.5144955845914775,0.5144955845914775,0.8574930282141503,670,1080)"></path><path  fill="#707070" stroke="#707070" d="M 20 0 L 0 10 L 20 20 z" id="v-997" transform="matrix(-0.8574928911956576,0.514495812955666,-0.514495812955666,-0.8574928911956576,975.1449358696384,908.5749292784935)" style="opacity: 1;"></path><path  d="M 670 1080 L 970 900" id="v-996" fill="none" style="cursor: auto; pointer-events: visiblepainted;"></path><g ><g id="v-989"  label-idx="0" cursor="move" transform="matrix(1,0,0,1,820,990)" style="cursor: default; opacity: 1;"><rect joint-selector="rect" id="v-992" fill="#ffffff" rx="3" ry="3" pointer-events="none" width="192.770751953125" height="61.64324378967285" transform="matrix(1,0,0,1,-96.4,-30.8)"></rect><text joint-selector="text" id="v-991" font-size="24px" xml:space="preserve" y="0.8em" fill="#707070" text-anchor="middle" pointer-events="none" font-family="Open Sans" font-weight="normal" transform="matrix(1,0,0,1,0,-24.2)"><tspan dy="0" >Receives</tspan><tspan dy="1.2em" x="0" >instructions from</tspan></text></g><g id="v-990"  label-idx="1" cursor="move" transform="matrix(1,0,0,1,810,1030.800048828125)" style="cursor: default; opacity: 1;"><rect joint-selector="rect" id="v-994" fill="#ffffff" rx="3" ry="3"  width="0" height="0" transform="matrix(1,0,0,1,0,0)" display="none"></rect><text joint-selector="text" id="v-993" fill="#000000" font-size="14" text-anchor="middle" pointer-events="none"></text></g></g><g  display="none" style="display: none;"></g><g  id="v-999" display="none"><g  id="v-987"><path  end="source" d="M 26 0 L 0 13 L 26 26 z"></path></g><g  id="v-988"><path  end="target" d="M 26 0 L 0 13 L 26 26 z"></path></g></g><g  id="v-998" display="none"><g  id="v-986" transform="translate(704.2997170285018, 1059.420169782899) "><g  event="remove"><circle r="11"></circle><path transform="scale(.8) translate(-16, -16)" d="M24.778,21.419 19.276,15.917 24.777,10.415 21.949,7.585 16.447,13.087 10.945,7.585 8.117,10.415 13.618,15.917 8.116,21.419 10.946,24.248 16.447,18.746 21.948,24.248z"></path><title>Remove link.</title></g><g  event="link:options"><circle r="11" transform="translate(25)"></circle><path fill="white" transform="scale(.55) translate(29, -16)" d="M31.229,17.736c0.064-0.571,0.104-1.148,0.104-1.736s-0.04-1.166-0.104-1.737l-4.377-1.557c-0.218-0.716-0.504-1.401-0.851-2.05l1.993-4.192c-0.725-0.91-1.549-1.734-2.458-2.459l-4.193,1.994c-0.647-0.347-1.334-0.632-2.049-0.849l-1.558-4.378C17.165,0.708,16.588,0.667,16,0.667s-1.166,0.041-1.737,0.105L12.707,5.15c-0.716,0.217-1.401,0.502-2.05,0.849L6.464,4.005C5.554,4.73,4.73,5.554,4.005,6.464l1.994,4.192c-0.347,0.648-0.632,1.334-0.849,2.05l-4.378,1.557C0.708,14.834,0.667,15.412,0.667,16s0.041,1.165,0.105,1.736l4.378,1.558c0.217,0.715,0.502,1.401,0.849,2.049l-1.994,4.193c0.725,0.909,1.549,1.733,2.459,2.458l4.192-1.993c0.648,0.347,1.334,0.633,2.05,0.851l1.557,4.377c0.571,0.064,1.148,0.104,1.737,0.104c0.588,0,1.165-0.04,1.736-0.104l1.558-4.377c0.715-0.218,1.399-0.504,2.049-0.851l4.193,1.993c0.909-0.725,1.733-1.549,2.458-2.458l-1.993-4.193c0.347-0.647,0.633-1.334,0.851-2.049L31.229,17.736zM16,20.871c-2.69,0-4.872-2.182-4.872-4.871c0-2.69,2.182-4.872,4.872-4.872c2.689,0,4.871,2.182,4.871,4.872C20.871,18.689,18.689,20.871,16,20.871z"></path><title>Link options.</title></g></g></g></g><!--z-index:25--><g   id="j_84" ><path  stroke="#707070" d="M 445 615 L 445 465" id="v-1012" stroke-width="2" stroke-dasharray="30 30" fill="none" style="opacity: 1;"></path><path  fill="black" stroke="black" d="M 0 0 0 0" transform="matrix(-1.8369701987210294e-16,-0.9999999999999999,0.9999999999999999,-1.8369701987210294e-16,445,615)"></path><path  fill="#707070" stroke="#707070" d="M 20 0 L 0 10 L 20 20 z" id="v-1014" transform="matrix(6.123233995736765e-17,0.9999999999999999,-0.9999999999999999,6.123233995736765e-17,455,464.9999999999998)" style="opacity: 1;"></path><path  d="M 445 615 L 445 465" id="v-1013" fill="none" style="cursor: auto; pointer-events: visiblepainted;"></path><g ><g id="v-1006"  label-idx="0" cursor="move" transform="matrix(1,0,0,1,445,540)" style="cursor: default; opacity: 1;"><rect joint-selector="rect" id="v-1009" fill="#ffffff" rx="3" ry="3" pointer-events="none" width="195.88645935058594" height="90.4432373046875" transform="matrix(1,0,0,1,-97.9,-45.2)"></rect><text joint-selector="text" id="v-1008" font-size="24px" xml:space="preserve" y="0.8em" fill="#707070" text-anchor="middle" pointer-events="none" font-family="Open Sans" font-weight="normal" transform="matrix(1,0,0,1,0,-38.6)"><tspan dy="0" >Creates</tspan><tspan dy="1.2em" x="0" >bidirectional</tspan><tspan dy="1.2em" x="0" >connection to API</tspan></text></g><g id="v-1007"  label-idx="1" cursor="move" transform="matrix(1,0,0,1,435,595.2000122070312)" style="cursor: default; opacity: 1;"><rect joint-selector="rect" id="v-1011" fill="#ffffff" rx="3" ry="3"  width="0" height="0" transform="matrix(1,0,0,1,0,0)" display="none"></rect><text joint-selector="text" id="v-1010" fill="#000000" font-size="14" text-anchor="middle" pointer-events="none"></text></g></g><g  display="none" style="display: none;"></g><g  id="v-1016" display="none"><g  id="v-1004"><path  end="source" d="M 26 0 L 0 13 L 26 26 z"></path></g><g  id="v-1005"><path  end="target" d="M 26 0 L 0 13 L 26 26 z"></path></g></g><g  id="v-1015" display="none"><g  id="v-1003" transform="translate(445.00000000000006, 575) "><g  event="remove"><circle r="11"></circle><path transform="scale(.8) translate(-16, -16)" d="M24.778,21.419 19.276,15.917 24.777,10.415 21.949,7.585 16.447,13.087 10.945,7.585 8.117,10.415 13.618,15.917 8.116,21.419 10.946,24.248 16.447,18.746 21.948,24.248z"></path><title>Remove link.</title></g><g  event="link:options"><circle r="11" transform="translate(25)"></circle><path fill="white" transform="scale(.55) translate(29, -16)" d="M31.229,17.736c0.064-0.571,0.104-1.148,0.104-1.736s-0.04-1.166-0.104-1.737l-4.377-1.557c-0.218-0.716-0.504-1.401-0.851-2.05l1.993-4.192c-0.725-0.91-1.549-1.734-2.458-2.459l-4.193,1.994c-0.647-0.347-1.334-0.632-2.049-0.849l-1.558-4.378C17.165,0.708,16.588,0.667,16,0.667s-1.166,0.041-1.737,0.105L12.707,5.15c-0.716,0.217-1.401,0.502-2.05,0.849L6.464,4.005C5.554,4.73,4.73,5.554,4.005,6.464l1.994,4.192c-0.347,0.648-0.632,1.334-0.849,2.05l-4.378,1.557C0.708,14.834,0.667,15.412,0.667,16s0.041,1.165,0.105,1.736l4.378,1.558c0.217,0.715,0.502,1.401,0.849,2.049l-1.994,4.193c0.725,0.909,1.549,1.733,2.459,2.458l4.192-1.993c0.648,0.347,1.334,0.633,2.05,0.851l1.557,4.377c0.571,0.064,1.148,0.104,1.737,0.104c0.588,0,1.165-0.04,1.736-0.104l1.558-4.377c0.715-0.218,1.399-0.504,2.049-0.851l4.193,1.993c0.909-0.725,1.733-1.549,2.458-2.458l-1.993-4.193c0.347-0.647,0.633-1.334,0.851-2.049L31.229,17.736zM16,20.871c-2.69,0-4.872-2.182-4.872-4.871c0-2.69,2.182-4.872,4.872-4.872c2.689,0,4.871,2.182,4.871,4.872C20.871,18.689,18.689,20.871,16,20.871z"></path><title>Link options.</title></g></g></g></g><!--z-index:26--><!--z-index:27--><!--z-index:28--><!--z-index:29--><!--z-index:30--><!--z-index:31--><!--z-index:32--><!--z-index:33--><!--z-index:34--><!--z-index:35--><!--z-index:36--><!--z-index:37--><!--z-index:38--><!--z-index:39--><!--z-index:40--><!--z-index:41--><!--z-index:42--><!--z-index:43--><!--z-index:44--><!--z-index:45--><!--z-index:46--><!--z-index:47--><!--z-index:48--><!--z-index:49--><!--z-index:50--></g><g ></g><g ></g><g ></g></g></svg>